P2
# Created by IrfanView
26 26
255
164 163 167 107 109 118 131 135 137 137 137 136 136 135 133 127 127 
160 162 160 178 178 121 127 129 99 164 169 161 105 108 116 129 133 134 135 132 131 134 134 131 128 121 
156 164 161 159 197 141 126 93 51 168 158 162 102 106 116 127 131 133 136 145 161 160 140 131 126 119 
147 158 157 151 163 195 88 53 49 151 136 163 97 102 113 123 129 126 132 145 171 192 194 156 118 114 
148 146 149 148 150 149 52 52 57 108 134 163 97 102 112 123 120 121 131 143 164 192 207 213 157 106 
151 121 126 149 139 61 51 61 126 93 132 162 97 101 111 126 116 124 138 142 172 197 207 212 212 144 
149 115 84 166 90 54 53 111 161 98 132 165 96 102 110 139 113 126 134 161 182 190 197 204 208 198 
159 138 173 211 95 51 83 157 163 102 136 170 98 102 107 154 114 126 144 159 174 179 182 189 192 191 
192 202 208 198 76 59 139 163 161 100 138 172 99 100 108 171 129 132 141 149 148 154 156 155 178 195 
203 208 178 144 52 100 161 162 161 105 141 173 98 101 102 176 137 130 135 123 93 97 89 133 192 198 
184 155 136 79 59 143 166 162 159 108 135 173 97 100 105 154 144 128 108 78 65 72 129 183 186 191 
121 135 78 53 85 162 168 164 160 106 131 174 100 102 111 136 131 100 66 62 73 120 172 175 191 209 
128 96 56 56 122 162 162 162 159 104 130 176 101 104 114 125 111 73 61 59 112 168 142 144 186 193 
119 88 61 69 152 164 161 155 148 100 124 178 103 102 128 111 76 77 57 73 165 130 103 125 165 130 
77 88 64 96 158 159 158 152 152 92 117 180 108 117 100 87 73 87 54 123 140 151 163 154 164 162 
96 86 70 123 159 155 149 170 193 78 110 177 109 113 86 89 57 87 87 118 107 153 173 151 157 171 
97 79 85 149 157 150 159 202 210 77 116 177 108 100 81 99 68 84 116 70 108 143 159 146 150 154 
73 72 116 157 154 148 183 212 216 69 126 179 111 94 75 94 105 134 76 63 105 138 144 145 164 120 
60 72 136 157 153 147 201 216 219 57 129 180 113 80 86 106 131 103 56 61 81 122 140 141 145 73 
61 79 143 159 154 143 214 219 216 54 125 177 111 68 77 104 121 70 57 54 62 92 135 162 146 70 
67 89 135 145 146 142 219 205 136 106 104 175 111 62 78 93 113 101 61 55 65 109 139 152 185 184 
112 84 138 134 119 139 211 117 85 124 112 179 101 54 66 68 102 117 66 57 80 114 141 153 174 198 
203 94 148 145 137 185 179 99 103 103 117 179 94 52 65 56 92 109 76 64 105 123 142 147 165 191 
215 151 148 143 149 215 136 103 99 92 127 178 98 54 59 56 90 83 54 78 108 135 145 144 157 179 
208 194 108 117 148 187 99 96 89 115 142 180 90 53 61 59 84 72 51 89 113 141 146 145 149 168 
197 207 117 86 146 117 86 94 80 91 161 181 75 61 69 85 74 71 80 120 133 140 145 150 152 162 
185 208 136 115 118 96 88 104 67 