P2
# Created by IrfanView
64 64
255
166 164 162 160 164 176 173 136 97 107 110 110 110 118 126 131 135 
136 135 136 138 138 137 137 139 138 138 135 136 136 138 137 137 
135 135 134 134 132 125 114 125 154 164 157 159 160 159 159 161 
162 184 223 198 110 122 125 126 126 128 127 130 129 124 141 162 162 161 160 167 175 168 132 95 104 109 108 108 117 125 130 132 
135 135 135 136 137 137 137 136 136 136 134 135 134 137 136 135 
134 133 132 132 132 126 116 113 144 162 163 163 164 161 160 159 
158 161 211 222 144 115 123 125 124 127 128 130 133 101 51 161 163 162 163 171 170 164 134 95 103 110 107 107 116 124 129 133 
134 136 135 136 136 137 136 136 136 136 135 135 134 139 137 136 
134 133 131 133 132 128 120 111 130 159 168 167 167 164 162 159 
157 156 177 223 205 116 119 124 126 128 133 137 96 50 50 163 164 165 170 172 165 165 131 92 103 109 108 108 115 125 129 132 
133 133 134 135 135 134 135 137 131 128 131 130 131 134 135 136 
132 132 131 131 132 128 121 112 127 155 166 166 165 164 162 160 
159 157 153 206 227 163 116 125 126 127 134 93 49 47 53 164 166 170 173 170 164 165 131 92 103 108 107 107 115 123 126 131 
132 131 133 133 133 135 133 134 130 127 128 128 126 131 134 136 
132 132 131 130 131 128 121 114 125 149 161 164 163 162 162 162 
161 158 153 166 223 222 126 118 126 132 93 47 55 54 52 167 168 171 163 165 166 164 130 91 103 107 106 107 115 124 126 129 
130 131 132 132 134 134 132 134 132 134 139 144 139 129 128 130 
131 133 132 131 131 127 120 115 123 145 154 160 161 160 160 160 
158 153 150 147 199 230 184 112 122 93 47 51 57 51 47 167 172 161 146 163 167 166 132 90 100 107 107 109 117 124 127 130 
131 133 133 132 133 133 136 148 150 161 173 184 183 187 173 144 
124 131 133 131 129 125 119 114 122 146 149 155 159 158 157 156 
152 148 146 146 159 221 229 147 91 45 48 55 54 48 47 170 170 138 131 166 170 167 132 85 96 102 104 108 115 122 126 127 
129 131 132 136 142 132 138 142 150 157 167 176 183 189 194 201 
176 128 125 126 125 121 116 110 121 147 150 152 155 156 151 149 
149 147 145 146 145 186 232 184 44 47 55 53 51 49 50 177 156 100 126 167 171 166 130 81 93 101 103 106 112 118 121 126 
128 129 136 119 125 126 136 135 140 147 161 178 185 190 196 199 
203 196 140 113 118 118 113 108 119 150 155 150 147 151 150 147 
149 147 146 148 149 155 204 82 44 52 55 50 51 52 45 170 128 85 127 168 172 165 129 81 95 103 103 104 111 119 120 124 
126 132 126 115 120 129 132 138 139 144 154 170 186 192 197 201 
200 202 211 176 107 111 108 107 118 153 160 153 130 131 152 149 
151 147 149 150 153 156 77 45 51 52 48 54 54 58 90 150 96 89 128 167 173 165 127 83 95 102 105 105 112 118 122 125 
127 126 113 119 124 125 128 136 139 143 150 169 188 193 190 197 
209 217 218 225 175 95 103 101 116 151 159 156 121 86 139 151 
150 148 149 150 156 102 43 50 54 48 53 52 69 87 154 114 91 90 127 165 172 165 126 83 97 102 104 105 111 119 122 126 
126 114 116 121 119 122 132 140 144 147 150 165 179 181 203 215 
212 211 214 218 228 137 88 95 114 152 160 157 127 55 109 150 
150 148 149 152 135 51 49 56 49 54 50 62 95 147 152 92 94 92 125 163 172 165 127 82 95 103 103 106 111 120 122 128 
119 117 117 120 123 131 137 143 145 141 146 158 178 204 208 208 
205 211 211 214 218 221 152 79 111 152 160 159 126 54 68 131 
152 146 150 154 67 44 57 53 52 51 56 78 141 153 168 93 95 92 126 163 170 165 128 83 93 101 105 104 111 118 118 143 
107 115 117 120 126 137 143 142 142 132 143 184 199 199 197 202 
211 212 212 213 214 219 226 114 103 149 160 158 128 57 44 87 
141 150 152 103 45 53 55 52 53 53 58 136 146 164 169 94 92 89 122 163 169 166 129 81 91 98 101 105 110 115 122 153 
108 115 116 122 133 140 138 139 125 149 188 188 191 190 202 203 
206 207 209 210 214 215 221 203 92 148 159 159 128 56 42 99 
205 216 212 54 50 56 56 54 54 49 116 149 161 166 164 94 96 94 122 163 172 166 127 78 90 101 103 104 110 116 153 140 
106 115 117 128 129 129 134 123 160 180 175 183 185 196 195 198 
199 205 207 208 209 213 213 223 138 146 161 159 123 48 131 199 
218 223 231 93 49 54 50 49 55 87 152 157 165 165 163 100 102 99 123 163 173 169 130 83 94 103 106 106 113 115 172 128 
105 110 120 124 128 133 124 156 166 170 180 187 188 189 184 191 
198 202 204 205 196 207 210 211 211 162 159 153 126 174 202 216 
213 213 229 98 52 52 48 53 51 144 155 165 163 162 161 103 103 102 127 163 175 173 133 83 95 104 105 104 110 107 181 126 
108 107 114 123 126 126 150 155 153 169 181 176 184 177 183 188 
188 194 196 188 195 203 203 202 200 196 158 183 203 207 213 210 
211 218 229 73 53 49 48 55 106 154 164 165 163 161 160 103 102 103 126 166 179 176 134 83 95 102 102 102 107 103 201 140 
113 110 115 124 125 148 149 144 157 163 173 175 172 180 181 180 
186 189 187 192 196 193 189 191 183 197 198 204 210 210 207 211 
203 215 216 47 52 48 52 79 150 157 166 164 163 161 161 101 100 100 125 167 178 175 134 84 96 103 102 102 106 106 201 155 
131 108 115 120 142 145 137 154 153 154 165 172 175 174 177 173 
172 179 185 189 186 185 177 180 191 199 208 205 206 207 210 204 
173 189 153 48 51 48 58 124 154 165 166 165 163 164 162 99 97 99 128 167 177 174 135 84 96 102 101 102 103 110 196 163 
141 112 114 141 137 132 148 145 149 154 162 163 166 168 168 165 
170 173 174 174 174 169 182 193 203 203 200 203 209 210 215 177 
164 180 89 49 49 52 92 153 159 165 163 164 162 163 162 101 100 105 130 168 179 175 137 82 95 100 100 101 101 114 206 174 
155 124 131 134 130 144 140 139 147 153 139 132 131 146 138 159 
160 160 146 154 166 186 199 203 196 201 206 210 211 214 199 138 
122 186 43 51 54 58 135 154 164 163 162 162 161 162 160 103 102 107 133 169 180 176 138 80 93 101 103 102 102 106 210 186 
143 128 123 122 140 135 134 137 145 135 129 110 92 143 109 94 
90 63 61 132 182 200 202 202 200 205 207 212 203 161 111 104 
178 104 49 48 52 81 152 162 166 165 162 161 160 160 159 107 103 108 133 169 178 176 138 82 94 101 103 102 101 92 204 192 
138 139 115 137 133 132 135 140 128 128 103 82 66 105 89 92 
72 48 129 175 194 200 197 199 199 204 203 169 102 103 137 182 
98 48 50 51 56 125 155 169 167 165 164 162 161 160 159 110 106 106 132 168 177 175 140 82 93 99 102 101 103 98 168 201 
161 130 133 130 127 130 133 128 111 77 67 52 83 73 94 71 
79 136 181 191 190 189 191 197 200 158 107 124 159 172 187 103 
47 55 50 52 71 149 163 170 169 167 164 162 161 160 158 111 107 103 126 168 178 176 141 80 91 99 100 101 105 108 116 207 
181 126 131 126 130 130 127 89 81 62 77 49 69 62 73 95 
122 184 197 188 186 182 190 194 181 87 106 126 161 180 88 46 
53 56 48 55 106 145 172 170 169 168 165 164 163 161 158 111 107 100 121 167 178 179 142 79 89 100 100 101 107 114 104 181 
192 130 120 127 129 124 93 69 83 56 78 62 52 61 78 108 
160 188 184 182 181 183 197 202 203 127 84 111 153 74 45 54 
59 51 50 64 129 151 172 170 169 168 167 166 163 161 159 109 106 99 119 166 179 178 143 81 92 102 104 102 108 117 110 174 
171 117 122 127 127 79 67 48 68 69 67 91 49 61 121 150 
188 190 170 181 174 195 206 207 211 155 61 82 153 56 49 57 
61 48 50 93 139 158 166 169 167 168 168 165 164 163 158 108 106 99 119 166 179 179 144 84 92 104 106 104 114 122 118 142 
156 119 128 118 72 54 65 57 53 60 86 83 49 134 176 164 
184 182 170 167 185 201 208 212 218 185 74 54 145 62 56 60 
60 49 51 128 151 163 157 156 160 161 166 165 162 161 158 107 103 97 117 165 181 179 143 85 95 104 107 106 114 120 120 123 
136 132 130 78 66 49 65 60 57 57 71 64 120 163 187 172 
185 167 166 178 187 202 207 212 219 204 99 45 132 68 58 62 
55 53 72 143 164 168 166 164 159 152 152 153 155 158 157 105 103 98 117 166 181 180 143 84 93 105 106 106 113 121 132 121 
110 136 100 72 75 47 70 49 60 65 58 97 159 175 185 185 
132 139 162 183 184 195 201 206 214 202 98 43 113 88 64 65 
52 51 108 143 167 166 165 169 166 160 155 151 148 147 149 106 106 99 115 165 181 182 145 85 95 105 105 104 110 122 149 112 
95 106 76 72 85 53 59 58 52 69 72 154 189 178 178 135 
135 125 92 127 172 187 198 193 149 110 92 49 96 103 64 59 
53 58 131 152 166 163 162 162 163 160 160 161 156 149 139 102 101 93 110 165 183 180 146 83 91 103 102 98 130 155 157 130 
73 73 91 95 56 70 44 77 53 44 133 182 202 166 75 60 
57 78 81 131 151 182 207 126 75 62 61 49 88 116 65 53 
53 69 142 162 162 160 160 161 161 159 158 158 152 148 142 102 97 87 105 166 184 183 145 85 97 104 105 91 126 170 129 72 
69 67 69 108 48 52 63 48 47 85 163 193 187 108 64 88 
85 202 111 119 141 188 178 80 98 118 49 46 85 125 70 51 
51 102 148 163 160 158 158 158 158 156 154 150 143 137 147 105 99 86 103 165 185 186 148 91 103 113 91 107 150 140 71 82 
68 74 90 116 68 45 51 48 52 142 186 184 128 141 133 125 
146 171 152 129 137 194 178 137 140 92 64 52 80 135 70 50 
57 127 155 161 158 157 160 158 156 151 146 142 151 176 190 102 92 80 96 164 186 188 151 90 101 113 132 131 85 59 69 109 
74 67 97 108 77 48 48 45 102 172 185 109 136 157 162 158 
158 167 160 139 134 186 205 158 136 112 80 52 73 145 63 51 
65 139 161 159 157 157 156 155 151 146 141 171 196 197 196 93 85 72 92 163 184 186 150 88 101 126 136 113 83 70 105 101 
48 62 92 95 101 55 47 67 144 195 90 116 137 157 173 181 
181 179 161 146 134 175 211 169 144 130 87 57 63 155 53 49 
91 146 163 159 157 156 153 151 146 140 172 202 202 197 200 81 77 68 90 163 183 183 150 88 101 115 111 97 85 76 107 69 
51 50 59 52 119 77 40 106 184 118 68 121 136 151 167 181 
183 175 157 146 134 166 215 167 149 133 77 56 57 159 54 55 
117 158 162 159 155 153 151 149 142 155 199 200 202 207 211 80 77 63 86 161 179 181 149 83 117 132 93 109 79 88 118 82 
56 43 75 75 139 90 53 141 174 45 74 118 135 148 161 171 
175 170 149 137 128 155 219 163 147 129 61 63 53 148 71 56 
138 163 161 159 156 152 149 145 140 188 201 201 211 216 211 83 77 59 80 161 181 183 150 86 112 121 86 97 78 88 119 79 
53 47 85 109 73 44 118 160 73 48 83 115 133 144 154 160 
166 163 138 135 135 148 217 160 145 114 48 66 51 135 89 75 
149 163 158 156 156 154 150 142 160 202 201 211 214 214 215 84 78 66 95 163 179 183 153 93 99 113 84 98 83 75 109 118 
52 62 49 87 49 81 182 119 42 52 94 116 131 142 152 156 
162 162 141 126 112 126 187 154 140 77 50 67 54 119 100 105 
155 161 157 156 154 151 148 140 183 203 208 214 215 216 215 80 79 71 117 166 176 184 154 88 97 123 70 78 77 80 108 122 
76 105 52 84 135 121 144 49 60 55 103 121 131 139 147 152 
160 163 157 145 159 178 186 152 125 52 55 77 59 101 111 132 
158 160 157 154 153 151 146 142 195 205 215 214 216 217 217 74 73 68 119 166 177 184 155 86 103 123 79 84 64 74 87 95 
117 79 75 142 157 116 63 51 61 50 103 118 132 139 145 146 
152 155 153 157 196 198 184 146 87 50 59 78 59 82 127 145 
160 159 154 153 150 150 145 147 200 212 216 215 216 219 219 63 68 69 117 168 181 185 155 90 110 117 67 69 66 93 91 83 
110 94 161 182 117 85 59 49 64 52 93 108 132 136 144 146 
123 127 133 130 137 143 134 134 52 52 63 79 63 68 140 150 
161 157 154 153 151 149 143 150 206 217 216 217 219 221 220 58 64 72 121 169 183 186 156 114 104 112 74 51 77 113 90 101 
89 132 166 137 123 52 49 53 61 59 82 95 123 129 138 150 
139 125 129 149 164 159 146 88 50 49 61 82 69 60 154 155 
161 158 157 153 151 150 141 156 216 219 218 219 220 220 218 55 56 73 115 165 185 186 157 81 120 87 89 60 72 126 110 92 
121 136 160 152 60 57 54 55 61 61 76 77 108 120 133 142 
145 136 132 132 139 149 127 50 51 56 63 82 74 62 160 158 
160 159 159 156 152 147 138 159 222 220 222 222 217 214 215 51 51 88 120 160 182 184 155 82 111 80 72 63 57 126 125 111 
109 110 165 72 53 57 54 53 56 60 60 66 83 108 129 139 
144 149 155 168 164 154 76 47 56 58 66 85 76 62 165 156 
161 159 158 157 151 146 134 161 226 222 221 220 218 217 216 50 48 83 122 161 182 184 156 81 93 63 76 65 53 111 82 126 
127 124 93 57 54 62 55 54 51 57 59 63 61 69 107 129 
143 155 170 172 170 140 54 55 62 55 73 89 80 66 166 153 
157 156 155 155 148 143 131 176 226 219 222 219 214 204 168 50 45 68 111 162 179 182 150 117 113 60 68 63 47 125 88 98 
116 144 124 71 51 70 55 51 53 52 61 60 71 81 102 119 
133 148 161 166 163 151 78 58 59 54 74 92 84 74 160 122 
129 137 144 150 147 140 125 198 221 218 217 207 155 73 52 83 57 60 86 156 177 179 167 102 87 47 72 63 70 93 110 111 
107 113 108 134 65 69 60 52 53 52 58 58 68 114 131 133 
141 147 149 151 174 200 206 164 87 46 74 90 82 81 153 134 
127 119 113 114 120 123 116 206 214 216 210 155 64 63 84 138 111 77 67 150 176 180 155 126 67 41 91 70 93 62 101 103 
90 121 131 101 95 60 60 53 53 57 57 68 63 111 127 132 
142 145 145 157 180 195 201 209 213 138 63 81 75 86 152 149 
144 139 129 116 102 118 98 203 217 214 152 68 78 89 89 134 153 114 66 151 181 181 163 143 49 51 61 71 67 71 77 68 
83 112 141 107 111 71 61 57 55 61 62 87 62 112 125 138 
143 145 149 164 174 185 193 203 213 220 153 60 71 90 149 152 
148 146 141 134 125 131 133 216 220 196 80 91 95 106 95 78 159 148 66 153 183 184 162 111 42 56 55 52 84 51 66 82 
85 100 125 141 87 100 54 58 50 62 56 104 68 108 135 139 
144 145 151 161 169 178 188 198 209 217 225 107 56 96 147 151 
148 146 144 139 132 140 170 221 218 150 87 99 110 99 105 48 154 159 58 152 184 185 161 106 48 56 49 62 79 57 61 67 
94 94 124 128 78 109 56 65 52 56 60 108 75 113 135 141 
143 145 151 157 165 175 185 194 207 216 223 198 43 105 150 152 
149 145 140 135 130 182 211 223 207 111 97 112 101 100 106 38 144 162 58 152 185 186 161 90 54 47 46 90 67 59 49 52 
74 98 122 134 134 97 59 61 56 55 82 125 82 116 138 142 
141 143 149 154 162 170 181 192 205 215 220 227 78 114 153 150 
148 143 138 131 150 221 218 222 169 100 102 114 97 107 100 35 136 166 65 150 183 181 161 94 49 49 58 64 65 58 48 55 
69 80 133 104 100 90 87 82 57 58 105 130 82 123 138 145 
142 140 145 151 159 166 176 190 202 212 218 223 134 124 152 148 
144 144 139 131 165 218 220 212 135 106 107 103 101 102 91 38 120 168 74 147 183 184 163 97 48 51 62 55 59 53 54 59 
75 91 120 108 87 56 59 64 52 73 119 128 84 133 143 145 
144 141 143 149 156 164 172 184 198 209 216 220 186 133 148 148 
147 145 140 137 153 196 221 190 118 102 100 92 104 97 97 38 107 168 87 142 181 184 161 109 49 57 50 60 63 57 52 63 
74 77 79 77 124 55 50 47 52 94 125 104 100 139 145 148 
145 142 143 148 154 160 168 179 193 205 215 220 221 130 100 118 
135 143 144 151 145 164 223 165 104 97 85 102 96 99 82 36 98 178 98 137 179 185 164 101 54 47 57 58 59 60 48 56 
77 121 86 88 61 48 46 44 72 115 120 71 126 140 145 146 
146 143 141 144 151 157 164 174 187 201 213 219 223 137 89 85 
81 82 97 142 161 189 212 117 78 88 97 97 98 99 63 75 109 184 115 137 180 185 158 98 49 54 53 53 60 61 49 51 
56 91 128 104 48 45 43 53 95 120 79 98 138 142 144 146 
148 145 142 143 146 153 161 168 182 196 208 216 221 178 102 105 
90 66 44 125 190 206 163 69 76 90 99 87 105 89 61 93 129 182 130 136 180 187 153 96 49 51 53 51 62 65 58 63 
64 69 101 85 47 44 44 79 102 75 87 130 138 142 144 145 
148 148 146 145 144 150 156 166 174 188 203 213 219 213 97 109 
102 89 74 130 208 154 72 68 83 102 80 95 109 84 67 70 110 175 136 133 181 188 161 70 49 56 54 60 71 66 92 66 
63 77 112 80 46 46 50 66 79 110 127 133 137 141 143 145 
148 151 149 146 146 147 154 162 171 184 197 209 218 221 118 100 
108 105 110 124 140 86 80 82 105 81 78 113 105 69 62 58 84 186 165 134 181 189 150 60 51 56 61 62 75 57 106 65 
77 80 83 82 44 49 80 109 119 128 131 134 136 140 142 144 
146 149 151 151 150 150 154 159 169 179 190 202 214 218 149 94 
110 119 121 116 106 111 92 97 81 77 105 118 85 60 58 52 71 199 187 136 180 187 146 57 51 63 69 68 86 67 83 88 
85 63 66 89 70 74 102 118 125 130 131 135 136 140 140 143 
145 150 150 152 155 153 156 161 168 175 186 198 209 216 186 93 
102 119 129 123 132 114 93 86 87 97 129 97 57 59 90 