P2
# Created by IrfanView
127 126
255
0 0 0 0 0 0 0 0 0 0 0 0 0 0 0 0 0 
0 0 0 0 0 0 0 0 0 0 0 0 0 0 0 0 
0 0 0 0 0 0 0 0 0 0 0 0 0 0 0 0 
0 0 0 0 0 0 0 0 0 0 0 0 0 0 0 0 
0 0 0 0 0 0 0 0 0 0 0 0 0 0 0 0 
0 0 0 0 0 0 0 0 0 0 0 0 0 0 0 0 
0 0 0 0 0 0 0 0 0 0 0 0 0 0 0 0 
0 0 0 0 0 0 0 0 0 0 0 0 0 0 0 0 0 0 0 0 0 0 0 0 0 0 0 0 0 0 0 
0 0 0 0 0 0 0 0 0 0 0 0 0 0 0 0 
0 0 0 0 0 0 0 0 0 0 0 0 0 0 0 0 
0 0 0 0 0 0 0 0 0 0 0 0 0 0 0 0 
0 0 0 0 0 0 0 0 0 0 0 0 0 0 0 0 
0 0 0 0 0 0 0 0 0 0 0 0 0 0 0 0 
0 0 0 0 0 0 0 0 0 0 0 0 0 0 0 0 
0 0 0 0 0 0 0 0 0 0 0 0 0 0 0 0 0 0 0 0 0 0 0 0 0 0 0 0 0 0 0 
0 0 0 0 0 0 0 0 0 0 0 0 0 0 0 0 
0 0 0 0 0 0 0 0 0 0 0 0 0 0 0 0 
0 0 0 0 0 0 0 0 0 0 0 0 0 0 0 0 
0 0 0 0 0 0 0 0 0 0 0 0 0 0 0 0 
0 0 0 0 0 0 0 0 0 0 0 0 0 0 0 0 
0 0 0 0 0 0 0 0 0 0 0 0 0 0 0 0 
0 0 0 0 0 0 0 0 0 0 0 0 0 0 0 0 0 0 0 0 0 0 0 0 0 0 0 0 0 0 0 
0 0 0 0 0 0 0 0 0 0 0 0 0 0 0 0 
0 0 0 0 0 0 0 0 0 0 0 0 0 0 0 0 
0 0 0 0 0 0 0 0 0 0 0 0 0 0 0 0 
0 0 0 0 0 0 0 0 0 0 0 0 0 0 0 0 
0 0 0 0 0 0 0 0 0 0 0 0 0 0 0 0 
0 0 0 0 0 0 0 0 0 0 0 0 0 0 0 0 
0 0 0 0 0 0 0 0 0 0 0 0 0 0 0 0 0 0 0 0 0 0 0 0 0 0 0 0 0 0 0 
0 0 0 0 0 0 0 0 0 0 0 0 0 0 0 0 
0 0 0 0 0 0 0 0 0 0 0 0 0 0 0 0 
0 0 0 0 0 0 0 0 0 0 0 0 0 0 0 0 
0 0 0 0 0 0 0 0 0 0 0 0 0 0 0 0 
0 0 0 0 0 0 0 0 0 0 0 0 0 0 0 0 
0 0 0 0 0 0 0 0 0 0 0 0 0 0 0 0 
0 0 0 0 0 0 0 0 0 0 0 0 0 0 0 0 0 0 0 0 0 0 0 0 0 0 0 0 0 0 0 
0 0 0 0 0 0 0 0 0 0 0 0 0 0 0 0 
0 0 0 0 0 0 0 0 0 0 0 0 0 0 0 0 
0 0 0 0 0 0 0 0 0 0 0 0 0 0 0 0 
0 0 0 0 0 0 0 0 0 0 0 0 0 0 0 0 
0 0 0 0 0 0 0 0 0 0 0 0 0 0 0 0 
0 0 0 0 0 0 0 0 0 0 0 0 0 0 0 0 
0 0 0 0 0 0 0 0 0 0 0 0 0 0 0 0 0 0 0 0 0 0 0 0 0 0 0 0 0 0 0 
0 0 0 0 0 0 0 0 0 0 0 0 0 0 0 0 
0 0 0 0 0 0 0 0 0 0 0 0 0 0 0 0 
0 0 0 0 0 0 0 0 0 0 0 0 0 0 0 0 
0 0 0 0 0 0 0 0 0 0 0 0 0 0 0 0 
0 0 0 0 0 0 0 0 0 0 0 0 0 0 0 0 
0 0 0 0 0 0 0 0 0 0 0 0 0 0 0 0 
0 0 0 0 0 0 0 0 0 0 0 0 0 0 0 0 0 0 0 0 0 0 0 0 0 0 0 0 0 0 0 
0 0 0 0 0 0 0 0 0 0 0 0 0 0 0 0 
0 0 0 0 0 0 0 0 0 0 0 0 0 0 0 0 
0 0 0 0 0 0 0 0 0 0 0 0 0 0 0 0 
0 0 0 0 0 0 0 0 0 0 0 0 0 0 0 0 
0 0 0 0 0 0 0 0 0 0 0 0 0 0 0 0 
0 0 0 0 0 0 0 0 0 0 0 0 0 0 0 0 
0 0 0 0 0 0 0 0 0 0 0 0 0 0 0 0 0 0 0 0 0 0 0 0 0 0 0 0 0 0 0 
0 0 0 0 0 0 0 0 0 0 0 0 0 0 0 0 
0 0 0 0 0 0 0 0 0 0 0 0 0 0 0 0 
0 0 0 0 0 0 0 0 0 0 0 0 0 0 0 0 
0 0 0 0 0 0 0 0 0 0 0 0 0 0 0 0 
0 0 0 0 0 0 0 0 0 0 0 0 0 0 0 0 
0 0 0 0 0 0 0 0 0 0 0 0 0 0 0 0 
0 0 0 0 0 0 0 0 0 0 0 0 0 0 0 0 0 0 0 0 0 0 0 0 0 0 0 0 0 0 0 
0 0 0 0 0 0 0 0 0 0 0 0 0 0 0 0 
0 0 0 0 0 0 0 0 0 0 0 0 0 0 0 0 
0 0 0 0 0 0 0 0 0 0 0 0 0 0 0 0 
0 0 0 0 0 0 0 0 0 0 0 0 0 0 0 0 
0 0 0 0 0 0 0 0 0 0 0 0 0 0 0 0 
0 0 0 0 0 0 0 0 0 0 0 0 0 0 0 0 
0 0 0 0 0 0 0 0 0 0 0 0 0 0 0 0 0 0 0 0 0 0 0 0 0 0 0 0 0 0 0 
0 0 0 0 0 0 0 0 0 0 0 0 0 0 0 0 
0 0 0 0 0 0 0 0 0 0 0 0 0 0 0 0 
0 0 0 0 0 0 0 0 0 0 0 0 0 0 0 0 
0 0 0 0 0 0 0 0 0 0 0 0 0 0 0 0 
0 0 0 0 0 0 0 0 0 0 0 0 0 0 0 0 
0 0 0 0 0 0 0 0 0 0 0 0 0 0 0 0 
0 0 0 0 0 0 0 0 0 0 0 0 0 0 0 0 0 0 0 0 0 0 0 0 0 0 0 0 0 0 0 
0 0 0 0 0 0 0 0 0 0 0 0 0 0 0 0 
0 0 0 0 0 0 0 0 0 0 0 0 0 0 0 0 
0 0 0 0 0 0 0 0 0 0 0 0 0 0 0 0 
0 0 0 0 0 0 0 0 0 0 0 0 0 0 0 0 
0 0 0 0 0 0 0 0 0 0 0 0 0 0 0 0 
0 0 0 0 0 0 0 0 0 0 0 0 0 0 0 0 
0 0 0 0 0 0 0 0 0 0 0 0 0 0 0 0 0 0 0 0 0 0 0 0 0 0 0 0 0 0 0 
0 0 0 0 0 0 0 0 0 0 0 0 0 0 0 0 
0 0 0 0 0 0 0 0 0 0 0 0 0 0 0 0 
0 0 0 0 0 0 0 0 0 0 0 0 0 0 0 0 
0 0 0 0 0 0 0 0 0 0 0 0 0 0 0 0 
0 0 0 0 0 0 0 0 0 0 0 0 0 0 0 0 
0 0 0 0 0 0 0 0 0 0 0 0 0 0 0 0 
0 0 0 0 0 0 0 0 0 0 0 0 0 0 0 0 0 0 0 0 0 0 0 0 0 122 123 116 116 117 113 
110 114 124 125 119 124 130 134 134 132 134 137 143 148 151 151 
147 150 154 147 145 133 75 33 21 21 20 20 20 22 29 37 
49 63 71 75 82 100 107 120 135 127 126 142 145 125 109 105 
104 92 80 79 75 70 67 65 63 52 47 40 33 32 29 23 
23 21 20 18 18 18 17 16 16 19 18 19 19 20 20 18 
16 16 15 14 14 15 0 0 0 0 0 0 0 0 0 0 
0 0 0 0 0 0 0 0 0 0 0 0 0 0 0 0 0 0 0 0 0 0 0 0 0 119 123 119 117 116 110 
110 117 121 122 128 134 133 133 134 134 133 140 147 150 151 151 
149 145 154 152 138 97 49 23 21 20 20 21 35 48 61 69 
77 93 112 124 135 142 149 154 157 157 149 151 156 149 130 121 
121 103 92 88 81 81 79 75 71 68 67 58 44 42 38 32 
29 28 27 23 21 20 18 18 18 20 19 19 19 20 20 18 
18 19 16 15 15 15 0 0 0 0 0 0 0 0 0 0 
0 0 0 0 0 0 0 0 0 0 0 0 0 0 0 0 0 0 0 0 0 0 0 0 0 117 121 125 124 120 112 
110 114 117 122 135 142 142 140 139 141 141 145 151 149 143 143 
146 145 148 141 116 70 34 23 21 20 27 42 56 67 78 98 
112 130 152 152 152 151 151 156 159 173 156 142 142 158 146 129 
124 110 104 89 82 82 80 76 73 72 71 61 47 46 42 35 
32 31 31 28 24 24 21 20 20 18 19 19 19 20 20 19 
18 19 18 17 16 16 0 0 0 0 0 0 0 0 0 0 
0 0 0 0 0 0 0 0 0 0 0 0 0 0 0 0 0 0 0 0 0 0 0 0 0 119 123 125 126 124 116 
112 114 119 124 131 141 142 140 137 137 137 143 151 143 136 139 
144 144 138 120 81 45 25 21 21 27 45 60 65 71 82 92 
107 123 142 142 145 154 158 163 190 199 200 198 193 198 194 166 
155 146 138 123 103 94 86 80 82 76 72 65 56 51 45 36 
35 32 30 29 25 26 27 24 21 18 18 20 20 20 20 20 
20 20 19 19 16 16 0 0 0 0 0 0 0 0 0 0 
0 0 0 0 0 0 0 0 0 0 0 0 0 0 0 0 0 0 0 0 0 0 0 0 0 115 122 125 125 127 125 
122 123 125 128 129 136 137 143 146 142 139 143 147 140 136 142 
144 142 133 107 61 29 24 22 27 38 55 62 65 67 73 98 
140 158 183 193 193 202 216 215 216 222 230 231 226 223 213 204 
198 190 163 154 145 135 126 118 116 106 88 79 70 64 57 49 
44 35 32 30 27 28 28 27 23 21 21 21 21 21 21 21 
21 20 18 17 15 14 0 0 0 0 0 0 0 0 0 0 
0 0 0 0 0 0 0 0 0 0 0 0 0 0 0 0 0 0 0 0 0 0 0 0 0 115 121 129 133 135 134 
131 129 127 128 135 140 140 144 148 146 144 147 148 143 140 143 
144 141 123 83 41 23 24 26 31 40 48 60 71 82 112 149 
196 214 221 221 218 222 228 227 227 227 230 233 233 232 230 223 
220 215 202 191 172 161 155 148 142 129 110 92 79 69 62 58 
53 46 38 33 30 28 28 25 24 22 23 22 21 21 21 21 
21 21 18 17 15 14 0 0 0 0 0 0 0 0 0 0 
0 0 0 0 0 0 0 0 0 0 0 0 0 0 0 0 0 0 0 0 0 0 0 0 0 121 123 127 136 137 134 
136 136 134 137 145 148 146 147 150 145 145 151 151 147 147 146 
145 138 99 64 27 23 26 28 32 47 66 78 107 142 181 204 
221 226 224 224 223 229 231 232 233 235 235 239 240 240 237 233 
228 225 220 210 195 186 172 163 157 143 133 116 92 80 71 63 
57 53 45 39 32 30 29 29 28 25 24 23 23 21 21 20 
20 21 20 19 15 14 0 0 0 0 0 0 0 0 0 0 
0 0 0 0 0 0 0 0 0 0 0 0 0 0 0 0 0 0 0 0 0 0 0 0 0 131 130 131 138 138 134 
135 138 138 141 148 147 144 146 150 147 147 151 150 150 153 145 
136 115 73 43 25 23 26 31 39 61 79 104 145 182 203 219 
229 231 229 229 232 236 243 247 248 247 244 247 251 251 244 236 
234 233 227 217 207 202 197 193 180 159 155 135 113 98 80 65 
58 53 47 40 34 32 30 30 29 26 25 26 24 22 20 20 
20 20 19 17 15 14 0 0 0 0 0 0 0 0 0 0 
0 0 0 0 0 0 0 0 0 0 0 0 0 0 0 0 0 0 0 0 0 0 0 0 0 136 134 135 139 137 130 
127 132 135 137 140 141 141 143 145 147 147 148 151 153 149 141 
123 90 58 29 22 21 28 38 51 70 97 131 162 204 222 228 
233 236 234 235 238 242 248 251 252 253 252 253 253 250 246 241 
241 240 234 227 220 215 212 202 193 182 158 141 125 109 92 73 
62 54 48 40 38 34 31 29 29 29 27 29 28 23 20 19 
19 18 17 16 15 14 0 0 0 0 0 0 0 0 0 0 
0 0 0 0 0 0 0 0 0 0 0 0 0 0 0 0 0 0 0 0 0 0 0 0 0 142 141 139 140 135 131 
127 129 132 137 134 130 133 141 146 147 148 150 147 147 151 146 
112 71 33 21 20 21 31 45 61 80 118 142 178 213 225 231 
234 236 236 237 240 243 249 251 254 255 255 255 253 251 248 246 
244 242 238 230 225 219 213 203 195 184 157 142 126 110 93 77 
66 58 49 39 40 39 34 32 31 30 29 29 29 24 21 20 
19 19 17 15 15 15 0 0 0 0 0 0 0 0 0 0 
0 0 0 0 0 0 0 0 0 0 0 0 0 0 0 0 0 0 0 0 0 0 0 0 0 147 148 144 139 135 131 
124 121 129 136 131 119 121 135 145 153 151 150 145 142 148 135 
88 58 21 19 18 21 33 50 69 91 121 149 189 207 222 228 
232 234 236 238 240 243 247 250 252 254 254 254 252 250 248 246 
245 240 237 232 227 220 213 203 194 182 156 141 125 107 86 73 
65 61 54 45 43 41 38 38 36 33 30 30 30 27 22 21 
20 20 18 16 15 15 0 0 0 0 0 0 0 0 0 0 
0 0 0 0 0 0 0 0 0 0 0 0 0 0 0 0 0 0 0 0 0 0 0 0 0 149 152 151 145 137 133 
124 121 124 128 124 118 118 127 139 152 150 146 144 139 135 93 
63 35 20 18 18 22 35 54 73 96 121 147 183 201 215 224 
229 232 234 236 239 241 246 248 249 249 250 250 249 249 247 246 
242 240 235 231 226 220 212 202 193 169 153 140 123 105 83 69 
64 61 56 48 44 41 40 39 38 34 30 29 29 29 26 23 
21 21 18 16 15 15 0 0 0 0 0 0 0 0 0 0 
0 0 0 0 0 0 0 0 0 0 0 0 0 0 0 0 0 0 0 0 0 0 0 0 0 150 155 155 155 147 140 
136 132 127 126 125 121 118 119 134 152 150 140 127 124 118 70 
31 21 20 18 18 25 41 61 77 96 118 144 166 197 211 219 
227 229 231 234 237 241 242 244 245 243 244 245 245 245 243 242 
241 239 234 229 224 217 208 198 188 161 149 134 120 105 87 71 
65 60 55 50 46 41 43 38 35 32 29 28 27 27 28 24 
23 21 18 16 15 15 0 0 0 0 0 0 0 0 0 0 
0 0 0 0 0 0 0 0 0 0 0 0 0 0 0 0 0 0 0 0 0 0 0 0 0 147 152 154 154 146 140 
140 139 134 130 131 131 128 132 137 137 141 141 129 117 89 51 
21 20 18 18 21 31 49 67 80 98 121 143 163 194 205 216 
224 228 229 229 233 236 238 239 238 237 238 238 239 239 239 237 
237 234 230 227 220 213 203 191 165 154 140 125 111 101 84 74 
67 59 55 54 51 49 45 36 34 31 29 29 27 28 28 26 
23 21 20 16 15 15 0 0 0 0 0 0 0 0 0 0 
0 0 0 0 0 0 0 0 0 0 0 0 0 0 0 0 0 0 0 0 0 0 0 0 0 147 149 149 147 142 139 
139 139 137 135 138 144 144 146 137 124 136 141 139 103 64 36 
28 20 18 20 22 34 53 72 84 106 125 143 160 190 202 213 
221 225 226 225 226 228 229 230 230 230 231 231 232 233 232 231 
231 230 228 222 216 206 195 181 155 140 128 114 101 91 81 74 
70 65 61 57 55 52 46 40 36 33 30 30 29 27 28 28 
24 21 18 17 15 14 0 0 0 0 0 0 0 0 0 0 
0 0 0 0 0 0 0 0 0 0 0 0 0 0 0 0 0 0 0 0 0 0 0 0 0 147 150 150 146 140 137 
137 137 137 139 143 150 151 148 137 124 127 141 132 75 41 37 
31 20 19 20 23 32 50 70 88 112 129 144 159 188 199 210 
218 223 221 219 216 217 219 222 223 224 224 225 226 226 227 226 
226 224 222 216 209 199 190 160 145 131 119 104 93 87 80 73 
73 70 64 59 58 54 46 40 37 35 33 32 30 27 27 28 
27 24 20 18 17 17 0 0 0 0 0 0 0 0 0 0 
0 0 0 0 0 0 0 0 0 0 0 0 0 0 0 0 0 0 0 0 0 0 0 0 0 150 154 153 147 144 144 
142 139 140 142 145 150 154 148 143 139 116 123 87 52 41 38 
28 20 18 20 23 32 50 73 93 115 132 146 159 185 196 205 
213 218 214 209 207 207 210 211 213 214 215 217 218 220 221 221 
221 220 216 210 201 192 172 153 139 127 116 104 93 88 81 77 
74 71 67 61 60 56 51 45 41 40 37 34 31 29 27 28 
28 27 21 20 20 20 0 0 0 0 0 0 0 0 0 0 
0 0 0 0 0 0 0 0 0 0 0 0 0 0 0 0 0 0 0 0 0 0 0 0 0 155 156 149 147 149 148 
144 143 143 143 147 153 156 156 156 155 138 103 61 44 43 31 
21 18 19 20 24 33 54 75 98 117 134 146 157 183 194 199 
201 205 206 203 201 201 202 202 202 204 206 208 211 214 217 218 
218 217 212 204 195 187 162 148 137 125 114 105 95 91 84 79 
74 73 74 70 64 61 59 55 48 42 42 38 34 31 28 28 
28 26 21 20 21 20 0 0 0 0 0 0 0 0 0 0 
0 0 0 0 0 0 0 0 0 0 0 0 0 0 0 0 0 0 0 0 0 0 0 0 0 157 157 152 149 148 147 
146 144 147 150 153 156 162 173 186 178 130 69 46 47 35 25 
20 18 20 21 25 35 55 74 93 116 132 146 156 175 190 195 
196 198 202 202 200 199 198 198 195 196 198 201 206 211 215 218 
218 215 210 202 195 181 159 147 136 125 113 108 103 99 90 83 
78 75 76 75 70 66 62 60 57 48 47 46 40 34 29 27 
26 26 22 21 20 19 0 0 0 0 0 0 0 0 0 0 
0 0 0 0 0 0 0 0 0 0 0 0 0 0 0 0 0 0 0 0 0 0 0 0 0 156 154 147 143 139 139 
142 148 153 156 158 161 184 190 192 163 98 52 45 38 25 22 
21 20 20 21 30 42 56 73 89 116 131 146 156 166 188 194 
196 197 199 201 199 198 195 195 192 191 193 196 201 209 216 219 
219 217 213 206 195 187 162 150 137 124 118 114 111 105 98 90 
86 80 79 76 74 70 65 62 62 57 53 51 44 38 30 28 
28 26 23 21 20 20 0 0 0 0 0 0 0 0 0 0 
0 0 0 0 0 0 0 0 0 0 0 0 0 0 0 0 0 0 0 0 0 0 0 0 0 152 142 136 136 139 142 
147 156 161 164 166 178 189 192 192 145 73 49 42 29 21 21 
20 19 20 21 36 55 66 76 98 120 136 147 157 166 188 194 
198 199 202 203 203 200 196 193 190 189 191 192 199 208 216 220 
222 221 217 211 202 193 172 155 140 126 126 128 119 114 110 107 
102 92 86 81 77 74 70 65 65 62 57 49 41 34 30 28 
26 25 23 22 21 20 0 0 0 0 0 0 0 0 0 0 
0 0 0 0 0 0 0 0 0 0 0 0 0 0 0 0 0 0 0 0 0 0 0 0 0 153 143 139 143 148 151 
154 162 177 185 190 190 189 196 191 107 56 47 39 24 20 20 
20 18 19 20 38 61 74 88 108 125 137 149 159 171 188 193 
198 203 206 208 207 204 199 194 192 191 189 191 198 210 218 224 
226 224 222 219 212 203 191 162 153 139 136 137 133 132 128 122 
118 110 99 93 83 79 74 69 67 64 58 48 41 34 27 27 
28 26 23 22 22 20 0 0 0 0 0 0 0 0 0 0 
0 0 0 0 0 0 0 0 0 0 0 0 0 0 0 0 0 0 0 0 0 0 0 0 0 160 155 150 156 164 178 
178 189 192 193 196 194 195 206 165 73 43 44 34 23 20 21 
21 19 19 21 41 63 77 97 111 126 141 154 161 177 189 194 
198 203 205 208 208 205 200 198 196 196 195 196 204 214 220 225 
227 227 225 223 216 213 201 184 186 161 154 153 151 151 141 134 
128 124 116 108 99 87 80 75 71 66 61 56 47 37 30 25 
28 27 24 21 21 20 0 0 0 0 0 0 0 0 0 0 
0 0 0 0 0 0 0 0 0 0 0 0 0 0 0 0 0 0 0 0 0 0 0 0 0 164 164 161 163 192 204 
199 204 204 197 197 194 195 206 148 61 43 42 29 21 21 21 
20 19 18 21 47 69 84 100 114 132 146 156 165 185 191 196 
200 202 203 204 204 202 202 203 206 202 203 205 209 216 220 224 
226 227 224 223 217 209 203 190 187 178 163 160 160 158 151 141 
135 131 126 120 107 96 88 78 74 67 64 60 53 39 31 25 
25 28 26 21 18 20 0 0 0 0 0 0 0 0 0 0 
0 0 0 0 0 0 0 0 0 0 0 0 0 0 0 0 0 0 0 0 0 0 0 0 0 183 187 187 189 200 212 
206 209 208 205 207 209 199 192 125 59 46 36 23 21 21 20 
18 18 18 22 48 68 81 102 120 136 151 161 178 190 196 200 
203 203 202 202 202 203 204 206 209 210 209 210 211 215 219 220 
223 223 223 221 221 211 202 195 192 186 167 161 159 157 149 141 
134 132 129 123 111 97 90 81 75 68 63 57 47 41 34 29 
28 28 27 21 18 19 0 0 0 0 0 0 0 0 0 0 
0 0 0 0 0 0 0 0 0 0 0 0 0 0 0 0 0 0 0 0 0 0 0 0 0 197 197 198 204 213 211 
206 211 215 222 232 222 208 184 100 55 44 32 21 20 20 18 
18 17 18 21 45 65 76 95 118 135 150 161 172 190 196 197 
198 199 199 199 201 203 206 208 209 211 211 212 214 214 216 217 
219 222 221 214 199 190 183 186 190 178 158 153 149 147 142 137 
132 126 123 118 107 97 87 77 73 67 63 56 42 40 39 33 
31 27 24 21 20 19 0 0 0 0 0 0 0 0 0 0 
0 0 0 0 0 0 0 0 0 0 0 0 0 0 0 0 0 0 0 0 0 0 0 0 0 208 205 203 208 214 214 
213 215 221 229 235 223 203 162 82 46 41 31 21 20 20 18 
19 17 18 21 44 63 74 90 113 131 144 154 164 182 186 186 
186 187 188 194 197 204 208 210 212 211 211 215 215 212 212 214 
210 198 166 158 143 137 136 145 157 151 143 140 137 135 133 131 
128 119 113 109 101 94 80 72 70 66 62 55 42 35 36 35 
32 28 26 22 20 18 0 0 0 0 0 0 0 0 0 0 
0 0 0 0 0 0 0 0 0 0 0 0 0 0 0 0 0 0 0 0 0 0 0 0 0 212 208 203 206 211 217 
219 215 220 233 235 218 205 148 69 41 42 35 22 20 20 20 
20 17 18 21 40 59 73 86 111 128 140 148 154 154 153 152 
153 156 163 181 190 196 205 212 207 207 211 218 216 210 197 178 
157 134 100 97 86 86 95 107 114 121 129 138 128 122 129 130 
123 112 107 95 84 79 71 66 64 60 54 52 45 38 35 33 
32 31 29 23 20 18 0 0 0 0 0 0 0 0 0 0 
0 0 0 0 0 0 0 0 0 0 0 0 0 0 0 0 0 0 0 0 0 0 0 0 0 210 209 201 204 215 223 
223 219 225 235 235 220 210 129 56 35 36 33 22 20 20 21 
21 18 19 21 37 58 73 92 113 128 137 139 137 133 129 126 
127 135 148 161 182 191 198 207 199 201 205 214 218 205 159 124 
108 80 67 64 65 70 73 75 79 88 96 112 110 105 106 110 
104 90 82 80 73 66 62 60 56 51 51 51 46 42 35 31 
31 32 31 23 18 18 0 0 0 0 0 0 0 0 0 0 
0 0 0 0 0 0 0 0 0 0 0 0 0 0 0 0 0 0 0 0 0 0 0 0 0 212 208 196 196 212 223 
220 213 221 232 228 211 195 104 45 32 31 30 21 21 21 21 
21 20 20 21 36 61 78 105 124 135 133 124 115 106 90 80 
83 94 117 141 161 186 194 200 194 198 199 199 193 162 119 80 
70 59 53 51 50 54 58 61 66 68 69 74 77 77 76 76 
73 70 67 66 64 56 54 53 46 45 46 44 43 40 33 30 
30 31 29 24 20 17 0 0 0 0 0 0 0 0 0 0 
0 0 0 0 0 0 0 0 0 0 0 0 0 0 0 0 0 0 0 0 0 0 0 0 0 202 202 198 200 207 204 
198 203 204 206 204 196 158 78 40 33 30 26 21 21 21 20 
20 20 18 18 33 63 80 109 126 126 115 96 80 72 65 56 
59 68 79 107 142 165 191 193 190 191 193 176 143 119 80 59 
44 35 37 38 36 35 39 44 49 50 49 48 54 58 59 58 
57 58 54 48 54 47 43 41 35 37 40 41 40 38 33 30 
30 32 29 24 20 18 0 0 0 0 0 0 0 0 0 0 
0 0 0 0 0 0 0 0 0 0 0 0 0 0 0 0 0 0 0 0 0 0 0 0 0 195 202 202 199 194 186 
190 196 188 187 185 160 135 68 36 33 30 25 23 22 21 20 
21 20 18 18 31 59 75 84 87 83 77 68 57 47 44 41 
42 49 59 72 107 146 178 188 172 181 188 151 119 86 66 46 
33 27 30 30 29 27 27 33 36 37 37 34 34 34 40 43 
41 42 37 37 39 35 33 31 31 32 34 38 35 34 34 32 
33 33 29 23 20 18 0 0 0 0 0 0 0 0 0 0 
0 0 0 0 0 0 0 0 0 0 0 0 0 0 0 0 0 0 0 0 0 0 0 0 0 191 196 194 191 181 163 
178 184 162 164 158 143 120 68 37 31 27 25 24 23 22 21 
21 21 20 21 30 45 53 60 62 58 49 42 42 42 46 42 
37 37 40 47 69 114 159 165 162 162 162 136 99 70 47 34 
28 23 24 25 25 33 45 60 71 75 72 63 45 35 29 29 
30 29 25 27 26 22 25 26 28 31 31 33 33 32 32 33 
33 30 28 24 21 20 0 0 0 0 0 0 0 0 0 0 
0 0 0 0 0 0 0 0 0 0 0 0 0 0 0 0 0 0 0 0 0 0 0 0 0 189 190 183 182 167 159 
161 184 167 157 148 141 129 71 36 31 25 26 24 23 22 20 
20 20 18 20 25 33 37 37 36 37 41 59 75 83 83 76 
68 58 37 36 49 80 145 158 155 157 154 121 80 61 35 27 
26 21 22 24 37 60 75 88 100 100 98 78 63 48 33 25 
22 21 21 22 22 20 21 23 25 30 32 32 33 33 32 31 
31 30 29 27 21 20 0 0 0 0 0 0 0 0 0 0 
0 0 0 0 0 0 0 0 0 0 0 0 0 0 0 0 0 0 0 0 0 0 0 0 0 195 185 159 157 154 147 
147 154 157 150 143 141 127 68 36 33 27 25 23 24 23 20 
20 19 18 20 22 29 31 32 32 36 53 69 79 78 75 65 
61 61 53 40 36 64 124 151 150 152 145 105 72 51 34 24 
21 21 23 35 58 65 64 60 54 53 48 40 40 39 34 32 
25 21 21 21 20 20 20 22 27 33 37 36 36 38 34 32 
31 31 29 26 21 20 0 0 0 0 0 0 0 0 0 0 
0 0 0 0 0 0 0 0 0 0 0 0 0 0 0 0 0 0 0 0 0 0 0 0 0 200 189 156 146 139 132 
124 132 147 144 137 133 112 67 33 31 29 26 23 22 23 20 
20 20 18 18 21 26 29 30 30 38 44 40 35 31 21 20 
20 24 37 44 41 45 95 143 151 151 138 92 62 43 34 25 
21 23 31 41 48 42 36 34 21 14 14 14 20 21 21 22 
21 21 18 20 20 20 21 33 43 45 46 43 41 40 34 30 
29 29 27 23 20 20 0 0 0 0 0 0 0 0 0 0 
0 0 0 0 0 0 0 0 0 0 0 0 0 0 0 0 0 0 0 0 0 0 0 0 0 196 189 155 149 148 130 
124 142 146 141 137 130 109 74 36 29 25 23 23 22 21 20 
19 19 18 18 21 23 27 30 30 31 32 36 45 36 18 14 
14 20 21 34 47 43 76 135 151 152 135 83 49 35 32 25 
24 29 34 37 47 63 71 68 34 14 17 16 16 16 16 18 
18 20 18 20 21 21 33 54 63 60 54 48 46 41 35 32 
30 27 28 26 21 21 0 0 0 0 0 0 0 0 0 0 
0 0 0 0 0 0 0 0 0 0 0 0 0 0 0 0 0 0 0 0 0 0 0 0 0 188 154 138 143 148 139 
130 145 145 138 130 122 115 88 54 32 21 21 22 22 21 21 
21 19 18 18 28 44 49 39 31 34 49 69 75 59 21 18 
20 21 21 25 48 61 71 129 151 152 135 83 47 31 29 25 
33 44 50 65 95 127 126 101 57 20 21 21 20 21 23 31 
29 31 37 49 60 61 67 71 76 70 61 53 45 40 37 34 
31 29 28 26 22 21 0 0 0 0 0 0 0 0 0 0 
0 0 0 0 0 0 0 0 0 0 0 0 0 0 0 0 0 0 0 0 0 0 0 0 0 162 115 85 91 123 141 
131 124 131 139 124 119 117 98 63 33 22 21 21 21 22 22 
21 20 18 18 41 69 78 65 56 64 75 97 109 83 61 48 
47 45 46 55 65 72 76 132 152 150 132 83 51 34 30 27 
38 56 69 90 145 145 141 129 94 61 49 49 48 50 52 54 
49 52 67 78 89 92 93 91 87 77 66 58 51 43 37 32 
31 29 26 23 21 18 0 0 0 0 0 0 0 0 0 0 
0 0 0 0 0 0 0 0 0 0 0 0 0 0 0 0 0 0 0 0 0 0 0 0 0 129 79 63 67 80 112 
112 108 107 132 133 125 118 100 63 27 21 21 21 23 23 20 
18 20 18 20 45 73 92 78 68 76 98 118 136 136 123 85 
73 67 67 71 71 74 80 136 155 148 132 82 55 38 31 29 
40 56 73 87 118 141 130 130 123 88 73 72 69 64 58 55 
54 62 75 88 102 110 115 111 100 82 69 60 54 47 38 32 
32 32 24 22 20 18 0 0 0 0 0 0 0 0 0 0 
0 0 0 0 0 0 0 0 0 0 0 0 0 0 0 0 0 0 0 0 0 0 0 0 0 95 68 63 66 64 72 
82 92 86 116 138 131 123 92 51 25 21 22 23 23 21 19 
18 17 18 20 53 75 92 86 76 79 84 93 105 107 92 71 
57 49 58 65 68 73 86 145 159 149 130 80 48 37 34 34 
40 55 70 75 79 92 91 92 87 77 70 67 65 58 49 44 
49 64 76 92 113 123 130 127 115 86 72 63 56 48 37 30 
30 30 23 22 20 17 0 0 0 0 0 0 0 0 0 0 
0 0 0 0 0 0 0 0 0 0 0 0 0 0 0 0 0 0 0 0 0 0 0 0 0 73 65 64 64 55 55 
69 76 78 105 135 138 129 73 36 27 21 21 22 22 21 18 
18 17 18 21 64 83 102 108 100 89 75 71 67 61 55 43 
41 41 59 72 86 88 100 151 166 150 127 78 48 37 41 41 
43 59 72 79 79 78 71 68 65 60 59 55 52 46 44 54 
72 83 98 114 130 141 141 136 123 92 74 64 50 41 33 27 
24 26 24 23 20 18 0 0 0 0 0 0 0 0 0 0 
0 0 0 0 0 0 0 0 0 0 0 0 0 0 0 0 0 0 0 0 0 0 0 0 0 64 63 67 68 59 55 
62 64 68 92 129 135 95 52 34 30 22 22 23 23 21 20 
20 19 19 22 68 103 128 145 145 134 106 85 73 67 61 56 
61 69 85 118 133 125 119 157 181 153 127 77 52 42 45 47 
55 69 80 98 109 94 78 72 71 69 65 63 67 71 78 100 
130 132 133 138 141 141 141 129 115 90 73 63 49 37 31 27 
24 26 24 22 20 19 0 0 0 0 0 0 0 0 0 0 
0 0 0 0 0 0 0 0 0 0 0 0 0 0 0 0 0 0 0 0 0 0 0 0 0 58 61 71 71 61 58 
57 55 61 84 112 103 66 40 33 29 23 22 22 22 23 21 
21 19 18 23 69 115 147 194 198 188 164 162 149 129 113 104 
111 118 138 158 157 151 143 161 188 154 120 76 55 47 48 55 
69 90 124 139 146 138 131 134 148 152 143 143 147 155 162 181 
188 163 154 147 141 137 128 114 98 83 73 62 49 35 29 29 
26 24 21 21 21 20 0 0 0 0 0 0 0 0 0 0 
0 0 0 0 0 0 0 0 0 0 0 0 0 0 0 0 0 0 0 0 0 0 0 0 0 56 56 68 71 66 58 
52 46 56 81 101 75 45 34 30 26 21 20 21 22 21 20 
18 18 18 25 70 123 157 197 201 201 205 205 200 189 159 149 
150 158 163 167 158 154 158 170 189 153 113 76 60 53 50 60 
79 115 148 159 169 184 183 191 207 219 219 219 215 213 207 202 
196 184 157 147 137 128 116 102 86 76 68 57 45 34 28 28 
28 27 21 20 20 18 0 0 0 0 0 0 0 0 0 0 
0 0 0 0 0 0 0 0 0 0 0 0 0 0 0 0 0 0 0 0 0 0 0 0 0 60 56 64 69 66 57 
50 43 53 75 80 57 39 32 29 27 21 20 21 21 21 20 
18 19 20 29 71 126 148 168 190 197 200 198 196 197 195 187 
183 191 196 194 172 162 177 185 190 155 109 76 64 60 59 65 
90 127 149 166 201 211 205 210 221 228 230 229 228 225 217 207 
196 183 157 143 131 117 106 91 79 70 61 49 43 34 30 29 
29 28 21 20 19 19 0 0 0 0 0 0 0 0 0 0 
0 0 0 0 0 0 0 0 0 0 0 0 0 0 0 0 0 0 0 0 0 0 0 0 0 60 59 62 67 64 56 
45 37 49 69 67 41 35 31 30 30 23 21 21 18 20 20 
18 20 21 29 68 109 131 152 166 189 192 195 198 200 204 203 
199 201 207 198 189 192 192 193 193 155 106 75 65 62 65 73 
99 128 151 185 208 214 214 218 223 228 228 226 221 216 210 203 
193 166 152 137 122 108 95 83 75 69 60 49 42 36 30 25 
25 26 22 21 20 19 0 0 0 0 0 0 0 0 0 0 
0 0 0 0 0 0 0 0 0 0 0 0 0 0 0 0 0 0 0 0 0 0 0 0 0 57 57 62 64 62 54 
42 37 46 65 59 35 30 29 29 30 25 22 21 18 20 20 
20 20 21 27 63 93 121 144 160 181 191 195 200 205 210 211 
214 208 206 195 187 191 196 200 201 159 109 78 68 63 63 75 
98 126 153 185 206 210 206 207 214 219 222 222 216 209 204 197 
187 159 144 126 111 96 84 77 71 66 59 50 44 36 30 27 
26 26 22 21 21 19 0 0 0 0 0 0 0 0 0 0 
0 0 0 0 0 0 0 0 0 0 0 0 0 0 0 0 0 0 0 0 0 0 0 0 0 52 57 60 62 59 50 
42 40 48 64 53 31 29 29 30 31 27 23 21 21 21 21 
21 20 20 25 54 80 111 138 156 177 191 197 202 209 212 216 
218 212 205 195 186 189 195 206 207 164 115 79 70 65 65 77 
98 126 153 180 197 202 197 199 207 210 215 219 216 210 200 193 
176 153 137 117 98 86 78 73 66 62 58 52 43 34 31 29 
29 29 24 22 21 18 0 0 0 0 0 0 0 0 0 0 
0 0 0 0 0 0 0 0 0 0 0 0 0 0 0 0 0 0 0 0 0 0 0 0 0 50 56 60 60 57 48 
42 40 50 63 44 29 28 30 31 29 23 22 21 21 21 21 
21 20 20 22 45 73 104 132 154 176 192 198 203 206 212 218 
216 206 201 194 187 184 197 213 216 172 119 80 71 66 68 81 
102 116 144 165 190 193 194 197 205 212 215 218 214 206 198 190 
163 147 129 108 89 80 73 65 61 58 56 49 38 32 27 25 
28 29 27 24 21 18 0 0 0 0 0 0 0 0 0 0 
0 0 0 0 0 0 0 0 0 0 0 0 0 0 0 0 0 0 0 0 0 0 0 0 0 48 57 60 60 57 49 
45 44 53 58 38 24 23 27 26 23 21 21 21 21 21 21 
21 20 18 21 36 67 99 133 154 178 193 198 201 203 207 210 
207 197 194 188 181 187 197 216 220 170 121 88 75 71 69 77 
99 118 144 172 186 189 193 199 205 210 214 213 209 200 193 181 
157 140 122 108 88 76 69 60 59 54 50 43 37 33 30 28 
25 28 26 25 21 18 0 0 0 0 0 0 0 0 0 0 
0 0 0 0 0 0 0 0 0 0 0 0 0 0 0 0 0 0 0 0 0 0 0 0 0 46 52 57 57 50 46 
44 45 48 43 29 22 23 23 22 21 21 21 21 20 21 21 
21 21 18 20 32 61 90 130 154 171 190 197 198 200 200 200 
197 190 188 160 159 166 198 220 211 156 116 97 80 73 70 75 
88 118 144 166 184 186 190 194 198 200 200 201 198 192 185 164 
152 137 120 105 86 74 68 62 60 57 49 41 39 38 33 31 
28 25 23 22 21 19 0 0 0 0 0 0 0 0 0 0 
0 0 0 0 0 0 0 0 0 0 0 0 0 0 0 0 0 0 0 0 0 0 0 0 0 46 50 52 53 47 44 
46 43 42 38 23 22 22 21 21 21 21 21 20 20 21 21 
21 21 20 21 31 56 82 124 151 167 189 193 195 197 196 195 
191 171 155 143 145 165 198 217 199 146 113 99 82 74 70 73 
79 100 136 158 164 173 181 187 190 191 192 193 191 183 163 157 
148 131 111 98 81 72 66 61 59 55 44 35 34 36 33 31 
29 28 24 22 21 19 0 0 0 0 0 0 0 0 0 0 
0 0 0 0 0 0 0 0 0 0 0 0 0 0 0 0 0 0 0 0 0 0 0 0 0 49 52 51 51 44 44 
46 40 38 36 21 21 21 21 20 21 21 20 21 20 20 21 
21 20 19 20 24 46 75 117 146 161 178 189 192 194 194 192 
178 155 136 119 130 160 197 209 193 146 116 95 76 72 68 64 
68 83 128 151 158 162 163 172 183 187 187 187 182 163 156 149 
139 120 101 86 76 67 61 57 52 47 40 34 32 31 31 30 
28 28 26 23 21 20 0 0 0 0 0 0 0 0 0 0 
0 0 0 0 0 0 0 0 0 0 0 0 0 0 0 0 0 0 0 0 0 0 0 0 0 48 49 44 42 42 43 
43 37 35 30 21 21 21 21 20 20 20 18 20 20 20 21 
20 19 19 20 22 37 70 107 135 151 160 175 188 191 193 190 
163 145 127 115 132 162 200 208 192 150 117 90 75 69 68 65 
64 79 129 155 164 166 163 165 178 182 179 169 162 155 144 136 
128 112 88 76 68 61 56 50 46 42 40 36 33 29 29 29 
28 29 26 24 22 20 0 0 0 0 0 0 0 0 0 0 
0 0 0 0 0 0 0 0 0 0 0 0 0 0 0 0 0 0 0 0 0 0 0 0 0 47 49 44 42 42 43 
40 35 34 27 21 21 21 21 20 20 20 18 20 21 20 20 
19 19 18 20 22 34 64 89 120 137 152 161 179 189 190 184 
157 140 119 115 142 178 212 214 194 153 119 88 77 74 72 71 
67 72 127 165 189 189 163 161 163 164 165 163 155 147 134 122 
120 106 79 69 62 58 53 48 44 40 37 33 32 30 29 30 
29 28 25 24 22 18 0 0 0 0 0 0 0 0 0 0 
0 0 0 0 0 0 0 0 0 0 0 0 0 0 0 0 0 0 0 0 0 0 0 0 0 46 50 48 46 44 42 
41 40 36 29 21 21 21 21 21 21 20 18 21 21 21 20 
19 18 17 18 21 33 58 76 96 122 142 155 164 172 172 161 
147 132 109 106 139 190 217 217 201 157 123 91 76 72 72 69 
65 63 111 181 194 185 158 158 156 159 164 159 153 140 124 111 
99 85 74 66 60 57 51 46 47 38 34 32 31 31 31 32 
29 28 26 27 23 18 0 0 0 0 0 0 0 0 0 0 
0 0 0 0 0 0 0 0 0 0 0 0 0 0 0 0 0 0 0 0 0 0 0 0 0 45 49 48 46 46 45 
44 43 39 29 21 21 21 21 21 21 21 21 23 22 21 20 
18 18 15 17 20 31 50 66 79 107 133 144 153 156 157 151 
141 125 92 83 122 186 212 214 194 146 97 72 65 63 62 58 
57 53 88 158 194 187 165 159 156 154 150 150 144 129 117 106 
87 76 68 62 56 52 46 41 42 37 34 31 31 33 32 31 
29 28 27 28 24 18 0 0 0 0 0 0 0 0 0 0 
0 0 0 0 0 0 0 0 0 0 0 0 0 0 0 0 0 0 0 0 0 0 0 0 0 44 48 47 47 49 46 
44 41 37 31 22 21 21 21 20 20 20 20 23 23 21 20 
18 17 15 15 18 24 44 62 75 99 123 132 140 143 142 139 
139 128 88 67 82 138 166 178 145 97 68 54 46 43 40 41 
43 42 75 145 190 186 173 160 154 147 142 141 132 117 104 89 
81 74 65 61 56 49 44 40 39 37 35 33 33 33 32 30 
30 32 30 27 22 20 0 0 0 0 0 0 0 0 0 0 
0 0 0 0 0 0 0 0 0 0 0 0 0 0 0 0 0 0 0 0 0 0 0 0 0 46 50 49 50 48 43 
42 40 38 35 24 21 21 23 21 18 18 18 21 21 19 18 
19 17 15 14 17 21 38 59 72 90 108 118 131 132 130 136 
143 147 130 76 60 75 103 101 75 55 44 35 31 25 25 31 
32 34 65 120 162 186 184 162 150 140 139 132 123 110 90 79 
72 68 65 58 51 49 45 40 38 35 36 34 33 32 32 31 
32 33 31 23 22 21 0 0 0 0 0 0 0 0 0 0 
0 0 0 0 0 0 0 0 0 0 0 0 0 0 0 0 0 0 0 0 0 0 0 0 0 50 52 49 47 45 43 
41 39 36 35 24 21 22 23 21 20 18 18 18 19 17 17 
18 19 19 15 16 21 36 56 67 79 93 109 117 121 130 149 
157 172 193 152 85 60 60 59 44 34 33 25 23 25 27 25 
29 35 64 104 145 178 172 155 137 135 138 120 112 100 80 72 
69 65 63 57 51 47 43 41 38 33 34 34 33 31 31 33 
33 32 29 25 22 21 0 0 0 0 0 0 0 0 0 0 
0 0 0 0 0 0 0 0 0 0 0 0 0 0 0 0 0 0 0 0 0 0 0 0 0 52 52 50 48 47 44 
40 38 37 37 24 21 22 23 23 20 19 18 18 18 17 17 
17 18 17 16 17 20 34 52 62 72 82 93 105 111 130 149 
165 199 209 217 192 106 53 31 27 29 28 23 25 30 32 30 
32 44 68 101 138 148 145 138 122 114 111 97 89 85 75 68 
66 62 62 57 50 47 44 38 38 33 33 35 35 31 31 32 
33 32 27 26 24 21 0 0 0 0 0 0 0 0 0 0 
0 0 0 0 0 0 0 0 0 0 0 0 0 0 0 0 0 0 0 0 0 0 0 0 0 50 51 49 48 47 45 
40 37 40 38 24 21 21 23 21 20 20 20 18 18 19 19 
19 18 19 19 18 20 32 49 59 69 77 83 86 94 116 140 
163 207 215 225 225 191 111 55 25 25 26 24 29 32 33 36 
43 58 73 103 126 121 114 108 98 93 88 80 77 77 74 68 
64 60 58 56 51 47 43 37 38 33 33 33 32 32 31 31 
32 30 25 23 22 20 0 0 0 0 0 0 0 0 0 0 
0 0 0 0 0 0 0 0 0 0 0 0 0 0 0 0 0 0 0 0 0 0 0 0 0 48 48 50 49 47 45 
42 38 41 35 21 21 21 21 21 21 21 21 18 20 21 20 
19 18 19 19 18 21 29 46 58 68 76 80 81 85 101 126 
155 194 210 222 225 206 162 86 47 31 31 29 34 38 39 48 
58 68 78 90 100 96 93 83 77 80 78 76 76 74 74 68 
65 60 56 54 53 49 44 37 37 37 34 33 32 33 33 32 
31 29 25 23 22 20 0 0 0 0 0 0 0 0 0 0 
0 0 0 0 0 0 0 0 0 0 0 0 0 0 0 0 0 0 0 0 0 0 0 0 0 49 50 53 52 48 44 
45 43 40 34 21 21 21 21 21 21 21 21 20 20 22 21 
20 18 17 16 19 20 23 37 56 68 76 77 80 83 92 111 
134 166 192 198 205 196 178 112 67 46 44 41 46 51 53 60 
67 72 75 77 75 73 73 68 64 70 75 76 77 78 76 69 
66 62 56 55 54 52 46 41 42 40 38 36 33 33 32 32 
30 28 25 23 23 20 0 0 0 0 0 0 0 0 0 0 
0 0 0 0 0 0 0 0 0 0 0 0 0 0 0 0 0 0 0 0 0 0 0 0 0 52 52 54 52 49 46 
45 45 43 36 25 22 21 21 21 18 18 20 21 21 23 22 
21 20 17 15 15 18 21 33 53 69 75 77 81 80 82 90 
100 123 144 156 189 205 194 128 79 69 64 61 60 61 60 64 
71 70 70 68 66 61 59 55 58 70 77 78 82 85 81 74 
69 64 59 55 50 49 50 45 44 38 36 38 34 32 31 31 
29 29 25 23 23 20 0 0 0 0 0 0 0 0 0 0 
0 0 0 0 0 0 0 0 0 0 0 0 0 0 0 0 0 0 0 0 0 0 0 0 0 51 54 54 51 49 44 
41 44 45 41 27 22 22 22 21 18 19 20 20 21 23 24 
21 21 20 17 15 17 20 30 48 64 72 77 84 80 76 77 
73 76 92 123 142 158 162 138 106 86 76 68 64 64 62 63 
67 65 62 58 54 48 49 59 68 77 81 82 83 86 82 74 
68 65 63 58 49 48 50 48 41 37 35 38 35 33 30 30 
28 29 26 21 21 20 0 0 0 0 0 0 0 0 0 0 
0 0 0 0 0 0 0 0 0 0 0 0 0 0 0 0 0 0 0 0 0 0 0 0 0 49 52 52 51 46 39 
41 43 44 42 30 23 21 21 21 20 21 21 21 21 23 24 
22 21 21 19 16 17 20 25 41 62 72 78 86 87 77 72 
63 46 46 61 65 72 82 94 92 78 67 59 56 56 54 51 
51 51 44 37 33 33 48 71 84 86 86 86 86 86 81 74 
69 66 63 59 52 48 50 46 42 38 35 36 33 31 30 27 
28 28 22 18 19 18 0 0 0 0 0 0 0 0 0 0 
0 0 0 0 0 0 0 0 0 0 0 0 0 0 0 0 0 0 0 0 0 0 0 0 0 47 48 46 45 43 38 
41 41 41 41 35 25 22 21 21 21 21 21 21 22 22 24 
22 21 20 17 17 17 19 21 32 58 71 78 87 95 91 75 
64 43 36 36 41 41 44 59 67 63 54 42 37 37 35 33 
33 33 33 33 33 46 68 85 89 90 90 88 87 87 84 73 
69 64 60 59 57 51 49 44 43 39 36 37 32 30 29 28 
25 23 21 20 18 17 0 0 0 0 0 0 0 0 0 0 
0 0 0 0 0 0 0 0 0 0 0 0 0 0 0 0 0 0 0 0 0 0 0 0 0 46 42 37 38 37 39 
40 37 37 41 38 25 21 21 21 21 21 20 21 23 22 24 
23 20 18 16 15 17 18 20 23 48 67 79 93 102 109 100 
83 75 83 109 112 88 78 73 67 55 47 47 43 41 37 36 
37 39 44 53 65 76 85 88 91 93 93 90 87 86 81 71 
66 62 58 56 56 53 50 42 40 39 37 35 31 30 28 28 
25 24 25 21 19 17 0 0 0 0 0 0 0 0 0 0 
0 0 0 0 0 0 0 0 0 0 0 0 0 0 0 0 0 0 0 0 0 0 0 0 0 47 42 37 38 37 39 
40 37 37 41 35 25 21 21 21 21 18 18 22 24 24 24 
21 20 16 15 15 19 20 20 21 35 60 76 101 112 117 129 
123 132 163 191 166 158 158 149 121 88 88 86 75 68 65 61 
63 64 67 72 82 86 87 88 90 93 93 91 88 85 77 69 
66 62 56 53 49 49 48 41 39 39 39 35 31 29 24 25 
26 25 25 21 18 17 0 0 0 0 0 0 0 0 0 0 
0 0 0 0 0 0 0 0 0 0 0 0 0 0 0 0 0 0 0 0 0 0 0 0 0 47 44 43 43 42 41 
43 45 42 41 33 23 23 23 21 20 20 20 22 24 22 21 
20 18 17 15 15 16 20 19 18 27 47 67 84 104 114 129 
138 159 204 204 167 150 146 142 119 104 110 110 86 76 69 67 
67 68 73 81 86 89 89 90 90 91 91 89 86 82 72 64 
63 59 55 50 46 44 48 45 41 39 37 35 30 25 24 28 
27 24 22 20 17 17 0 0 0 0 0 0 0 0 0 0 
0 0 0 0 0 0 0 0 0 0 0 0 0 0 0 0 0 0 0 0 0 0 0 0 0 49 49 49 49 49 45 
47 52 49 49 35 23 24 26 24 21 21 20 21 24 22 20 
18 17 20 18 17 16 16 16 18 22 32 52 69 80 96 114 
134 158 191 186 155 130 101 86 79 73 72 71 67 63 58 55 
56 61 67 74 84 86 87 87 87 87 87 86 82 77 70 64 
60 58 55 49 43 42 46 46 43 38 33 31 30 28 28 28 
28 24 21 18 17 16 0 0 0 0 0 0 0 0 0 0 
0 0 0 0 0 0 0 0 0 0 0 0 0 0 0 0 0 0 0 0 0 0 0 0 0 47 50 50 50 50 50 
47 54 55 55 37 24 27 25 24 22 21 20 21 24 21 18 
17 20 20 20 19 18 15 15 16 20 22 36 54 66 80 92 
113 140 157 158 149 132 94 69 59 46 41 43 41 37 41 45 
53 58 62 67 72 76 80 85 86 83 83 84 76 70 66 63 
58 54 52 46 41 42 45 44 40 34 30 30 30 31 28 24 
26 23 21 18 18 18 0 0 0 0 0 0 0 0 0 0 
0 0 0 0 0 0 0 0 0 0 0 0 0 0 0 0 0 0 0 0 0 0 0 0 0 48 47 49 49 50 50 
47 48 50 53 36 27 27 23 23 22 21 18 20 22 22 20 
18 18 20 20 18 16 15 15 15 17 20 26 38 50 68 80 
96 116 145 150 145 136 103 73 60 46 41 42 37 39 43 50 
58 59 64 68 74 78 81 84 85 81 78 77 70 65 61 58 
52 48 46 45 41 41 44 42 37 32 30 30 30 31 26 24 
26 24 21 21 20 20 0 0 0 0 0 0 0 0 0 0 
0 0 0 0 0 0 0 0 0 0 0 0 0 0 0 0 0 0 0 0 0 0 0 0 0 48 47 46 46 49 50 
46 47 46 44 33 25 27 24 23 21 21 18 20 21 21 20 
20 18 18 19 18 17 16 16 16 16 17 20 26 35 58 72 
83 94 125 139 140 137 125 109 86 71 67 66 59 62 63 64 
66 72 76 81 83 82 80 77 79 79 77 73 65 58 56 51 
49 46 44 43 41 43 43 42 38 33 30 30 30 28 25 24 
26 23 21 21 21 21 0 0 0 0 0 0 0 0 0 0 
0 0 0 0 0 0 0 0 0 0 0 0 0 0 0 0 0 0 0 0 0 0 0 0 0 47 47 46 45 47 49 
46 50 51 49 36 23 24 24 24 22 21 20 20 20 20 20 
20 19 19 19 19 18 19 20 18 16 15 17 20 22 40 60 
71 86 115 135 137 141 152 155 144 124 116 114 103 92 87 79 
79 88 89 84 82 83 82 77 76 77 76 72 64 56 49 47 
46 43 42 41 40 40 40 41 41 38 32 30 29 29 26 24 
24 26 22 21 21 20 0 0 0 0 0 0 0 0 0 0 
0 0 0 0 0 0 0 0 0 0 0 0 0 0 0 0 0 0 0 0 0 0 0 0 0 51 47 45 45 47 48 
47 49 53 54 40 23 23 23 23 23 23 21 18 18 17 18 
19 19 20 19 19 19 20 20 19 16 15 15 16 20 27 40 
59 79 110 127 141 159 191 201 198 193 186 165 151 136 118 98 
94 101 94 83 81 86 86 79 74 75 74 67 59 51 46 45 
45 42 39 39 36 34 34 35 36 35 31 30 28 29 26 23 
26 26 22 20 18 18 0 0 0 0 0 0 0 0 0 0 
0 0 0 0 0 0 0 0 0 0 0 0 0 0 0 0 0 0 0 0 0 0 0 0 0 61 60 57 58 58 55 
57 57 60 60 45 23 23 24 24 23 26 25 21 18 17 17 
20 20 20 19 18 19 20 20 18 16 15 14 15 18 21 27 
40 64 84 108 138 182 217 224 213 207 203 201 182 153 133 110 
102 99 91 83 77 82 80 74 74 70 66 59 50 45 40 43 
41 39 38 36 35 34 35 34 33 32 30 30 28 26 23 23 
26 26 22 20 18 17 0 0 0 0 0 0 0 0 0 0 
0 0 0 0 0 0 0 0 0 0 0 0 0 0 0 0 0 0 0 0 0 0 0 0 0 68 68 67 68 71 68 
67 68 69 69 55 31 26 26 27 24 23 24 21 20 18 18 
19 21 21 20 18 18 20 18 16 15 15 15 16 17 21 21 
24 42 67 88 130 167 211 224 213 211 214 209 194 161 139 114 
102 92 87 82 77 78 75 71 69 66 61 52 48 43 37 39 
39 38 36 35 41 38 36 35 31 29 29 30 29 25 24 26 
26 26 23 20 18 18 0 0 0 0 0 0 0 0 0 0 
0 0 0 0 0 0 0 0 0 0 0 0 0 0 0 0 0 0 0 0 0 0 0 0 0 68 66 64 65 68 71 
71 71 70 69 58 32 27 27 26 23 22 23 21 20 20 20 
20 20 20 20 20 20 20 18 16 15 16 19 17 17 19 18 
20 25 43 69 107 149 182 194 201 217 217 201 165 148 131 113 
99 91 87 82 76 74 75 67 62 60 56 48 44 43 38 36 
37 37 38 38 41 38 34 32 30 27 28 30 29 24 24 26 
24 24 23 20 18 20 0 0 0 0 0 0 0 0 0 0 
0 0 0 0 0 0 0 0 0 0 0 0 0 0 0 0 0 0 0 0 0 0 0 0 0 62 61 58 56 55 60 
62 63 61 63 55 32 24 24 23 22 21 23 21 20 20 21 
21 20 21 21 21 21 21 19 16 15 17 19 16 16 16 17 
18 20 25 45 72 101 138 155 165 195 196 182 154 137 119 106 
94 88 82 78 73 69 66 60 55 53 49 44 41 41 36 35 
35 39 41 38 38 35 34 31 30 27 28 28 28 25 24 25 
26 27 22 21 21 21 0 0 0 0 0 0 0 0 0 0 
0 0 0 0 0 0 0 0 0 0 0 0 0 0 0 0 0 0 0 0 0 0 0 0 0 53 53 54 50 48 47 
47 51 55 60 55 34 27 23 22 21 20 21 22 21 21 21 
21 21 21 21 21 21 21 20 17 16 19 18 17 15 15 16 
16 18 21 31 44 67 95 123 134 144 149 145 141 127 103 89 
85 82 76 71 66 62 58 50 48 46 47 44 42 42 37 35 
39 41 36 33 34 33 33 31 30 29 28 28 24 25 26 28 
28 26 22 21 21 20 0 0 0 0 0 0 0 0 0 0 
0 0 0 0 0 0 0 0 0 0 0 0 0 0 0 0 0 0 0 0 0 0 0 0 0 50 53 54 54 53 50 
48 49 55 62 63 42 25 24 23 21 18 21 22 22 21 21 
21 21 20 20 18 20 21 20 18 18 19 19 17 16 16 16 
19 17 18 22 31 43 66 82 101 115 110 106 99 90 82 75 
73 70 67 62 55 51 47 43 41 40 43 41 38 39 37 40 
40 38 32 29 30 31 31 30 30 27 28 28 24 27 30 31 
28 28 23 21 18 20 0 0 0 0 0 0 0 0 0 0 
0 0 0 0 0 0 0 0 0 0 0 0 0 0 0 0 0 0 0 0 0 0 0 0 0 62 63 64 67 67 64 
60 62 64 68 69 53 25 24 23 20 18 21 22 22 21 21 
20 19 18 18 20 21 21 20 19 20 20 19 17 19 17 17 
19 17 17 20 23 31 42 61 71 83 84 77 74 71 67 64 
62 57 52 47 44 43 42 41 39 38 39 38 38 38 37 37 
34 32 30 25 28 29 29 28 27 25 25 30 30 31 31 30 
30 31 26 22 18 19 0 0 0 0 0 0 0 0 0 0 
0 0 0 0 0 0 0 0 0 0 0 0 0 0 0 0 0 0 0 0 0 0 0 0 0 69 70 70 71 73 71 
68 70 70 73 73 64 35 24 21 21 21 22 21 21 21 20 
20 17 16 19 21 21 21 21 20 19 19 16 17 19 19 19 
19 17 16 18 20 22 27 36 45 58 63 59 56 55 52 48 
49 45 42 41 41 41 37 37 39 38 39 38 41 42 37 34 
33 31 27 25 26 27 27 28 26 25 27 34 34 33 32 29 
29 32 28 21 18 18 0 0 0 0 0 0 0 0 0 0 
0 0 0 0 0 0 0 0 0 0 0 0 0 0 0 0 0 0 0 0 0 0 0 0 0 67 70 71 73 78 78 
75 76 76 76 76 71 47 21 21 22 23 23 21 20 21 20 
20 17 17 18 20 20 20 21 20 18 17 15 15 16 17 17 
17 16 15 17 18 18 20 23 31 34 39 40 39 39 42 37 
42 43 41 42 38 34 32 34 39 38 37 38 42 42 38 35 
34 30 27 25 26 28 28 26 25 28 29 35 36 33 31 30 
30 32 26 21 18 18 0 0 0 0 0 0 0 0 0 0 
0 0 0 0 0 0 0 0 0 0 0 0 0 0 0 0 0 0 0 0 0 0 0 0 0 63 65 68 70 74 75 
74 74 76 76 74 71 53 21 21 21 21 22 21 20 20 20 
20 18 18 20 20 20 20 21 20 18 17 16 15 15 16 17 
17 16 16 16 18 18 18 20 22 24 28 31 32 33 36 35 
39 40 37 35 33 32 31 32 34 34 35 35 32 31 32 32 
31 31 30 28 29 26 28 25 26 30 32 36 35 31 31 31 
30 31 26 21 20 20 0 0 0 0 0 0 0 0 0 0 
0 0 0 0 0 0 0 0 0 0 0 0 0 0 0 0 0 0 0 0 0 0 0 0 0 55 56 60 63 64 68 
68 68 72 74 73 69 55 21 20 21 21 21 21 21 21 20 
20 20 18 21 21 21 20 21 21 20 20 19 17 17 16 16 
19 19 16 15 16 16 16 17 18 20 21 24 25 27 30 31 
32 33 32 31 31 33 32 30 30 30 31 30 25 25 30 31 
30 32 30 28 29 28 26 25 27 32 35 36 33 30 30 30 
30 29 26 22 20 20 0 0 0 0 0 0 0 0 0 0 
0 0 0 0 0 0 0 0 0 0 0 0 0 0 0 0 0 0 0 0 0 0 0 0 0 64 65 66 66 68 73 
73 73 76 78 74 70 61 27 20 21 21 21 21 21 21 18 
20 19 18 20 20 21 20 20 19 18 20 20 19 20 17 16 
16 15 15 14 15 14 15 15 15 18 20 23 25 25 28 25 
28 30 30 29 28 32 32 27 28 28 28 28 25 26 28 29 
30 32 29 28 29 28 26 25 27 30 33 36 36 30 30 32 
33 32 27 23 21 21 0 0 0 0 0 0 0 0 0 0 
0 0 0 0 0 0 0 0 0 0 0 0 0 0 0 0 0 0 0 0 0 0 0 0 0 74 74 74 76 78 78 
78 75 78 83 79 73 69 43 21 21 21 21 21 20 19 19 
18 18 18 19 18 21 21 20 18 20 21 20 19 20 19 16 
15 15 14 14 14 14 14 15 15 17 20 25 30 30 29 25 
28 30 27 25 24 28 29 27 27 27 28 29 28 27 26 27 
30 30 30 27 27 26 25 28 31 30 32 38 36 32 34 36 
36 35 30 28 21 21 0 0 0 0 0 0 0 0 0 0 
0 0 0 0 0 0 0 0 0 0 0 0 0 0 0 0 0 0 0 0 0 0 0 0 0 0 0 0 0 0 0 
0 0 0 0 0 0 0 0 0 0 0 0 0 0 0 0 
0 0 0 0 0 0 0 0 0 0 0 0 0 0 0 0 
0 0 0 0 0 0 0 0 0 0 0 0 0 0 0 0 
0 0 0 0 0 0 0 0 0 0 0 0 0 0 0 0 
0 0 0 0 0 0 0 0 0 0 0 0 0 0 0 0 
0 0 0 0 0 0 0 0 0 0 0 0 0 0 0 0 
0 0 0 0 0 0 0 0 0 0 0 0 0 0 0 0 0 0 0 0 0 0 0 0 0 0 0 0 0 0 0 
0 0 0 0 0 0 0 0 0 0 0 0 0 0 0 0 
0 0 0 0 0 0 0 0 0 0 0 0 0 0 0 0 
0 0 0 0 0 0 0 0 0 0 0 0 0 0 0 0 
0 0 0 0 0 0 0 0 0 0 0 0 0 0 0 0 
0 0 0 0 0 0 0 0 0 0 0 0 0 0 0 0 
0 0 0 0 0 0 0 0 0 0 0 0 0 0 0 0 
0 0 0 0 0 0 0 0 0 0 0 0 0 0 0 0 0 0 0 0 0 0 0 0 0 0 0 0 0 0 0 
0 0 0 0 0 0 0 0 0 0 0 0 0 0 0 0 
0 0 0 0 0 0 0 0 0 0 0 0 0 0 0 0 
0 0 0 0 0 0 0 0 0 0 0 0 0 0 0 0 
0 0 0 0 0 0 0 0 0 0 0 0 0 0 0 0 
0 0 0 0 0 0 0 0 0 0 0 0 0 0 0 0 
0 0 0 0 0 0 0 0 0 0 0 0 0 0 0 0 
0 0 0 0 0 0 0 0 0 0 0 0 0 0 0 0 0 0 0 0 0 0 0 0 0 0 0 0 0 0 0 
0 0 0 0 0 0 0 0 0 0 0 0 0 0 0 0 
0 0 0 0 0 0 0 0 0 0 0 0 0 0 0 0 
0 0 0 0 0 0 0 0 0 0 0 0 0 0 0 0 
0 0 0 0 0 0 0 0 0 0 0 0 0 0 0 0 
0 0 0 0 0 0 0 0 0 0 0 0 0 0 0 0 
0 0 0 0 0 0 0 0 0 0 0 0 0 0 0 0 
0 0 0 0 0 0 0 0 0 0 0 0 0 0 0 0 0 0 0 0 0 0 0 0 0 0 0 0 0 0 0 
0 0 0 0 0 0 0 0 0 0 0 0 0 0 0 0 
0 0 0 0 0 0 0 0 0 0 0 0 0 0 0 0 
0 0 0 0 0 0 0 0 0 0 0 0 0 0 0 0 
0 0 0 0 0 0 0 0 0 0 0 0 0 0 0 0 
0 0 0 0 0 0 0 0 0 0 0 0 0 0 0 0 
0 0 0 0 0 0 0 0 0 0 0 0 0 0 0 0 
0 0 0 0 0 0 0 0 0 0 0 0 0 0 0 0 0 0 0 0 0 0 0 0 0 0 0 0 0 0 0 
0 0 0 0 0 0 0 0 0 0 0 0 0 0 0 0 
0 0 0 0 0 0 0 0 0 0 0 0 0 0 0 0 
0 0 0 0 0 0 0 0 0 0 0 0 0 0 0 0 
0 0 0 0 0 0 0 0 0 0 0 0 0 0 0 0 
0 0 0 0 0 0 0 0 0 0 0 0 0 0 0 0 
0 0 0 0 0 0 0 0 0 0 0 0 0 0 0 0 
0 0 0 0 0 0 0 0 0 0 0 0 0 0 0 0 0 0 0 0 0 0 0 0 0 0 0 0 0 0 0 
0 0 0 0 0 0 0 0 0 0 0 0 0 0 0 0 
0 0 0 0 0 0 0 0 0 0 0 0 0 0 0 0 
0 0 0 0 0 0 0 0 0 0 0 0 0 0 0 0 
0 0 0 0 0 0 0 0 0 0 0 0 0 0 0 0 
0 0 0 0 0 0 0 0 0 0 0 0 0 0 0 0 
0 0 0 0 0 0 0 0 0 0 0 0 0 0 0 0 
0 0 0 0 0 0 0 0 0 0 0 0 0 0 0 0 0 0 0 0 0 0 0 0 0 0 0 0 0 0 0 
0 0 0 0 0 0 0 0 0 0 0 0 0 0 0 0 
0 0 0 0 0 0 0 0 0 0 0 0 0 0 0 0 
0 0 0 0 0 0 0 0 0 0 0 0 0 0 0 0 
0 0 0 0 0 0 0 0 0 0 0 0 0 0 0 0 
0 0 0 0 0 0 0 0 0 0 0 0 0 0 0 0 
0 0 0 0 0 0 0 0 0 0 0 0 0 0 0 0 
0 0 0 0 0 0 0 0 0 0 0 0 0 0 0 0 0 0 0 0 0 0 0 0 0 0 0 0 0 0 0 
0 0 0 0 0 0 0 0 0 0 0 0 0 0 0 0 
0 0 0 0 0 0 0 0 0 0 0 0 0 0 0 0 
0 0 0 0 0 0 0 0 0 0 0 0 0 0 0 0 
0 0 0 0 0 0 0 0 0 0 0 0 0 0 0 0 
0 0 0 0 0 0 0 0 0 0 0 0 0 0 0 0 
0 0 0 0 0 0 0 0 0 0 0 0 0 0 0 0 
0 0 0 0 0 0 0 0 0 0 0 0 0 0 0 0 0 0 0 0 0 0 0 0 0 0 0 0 0 0 0 
0 0 0 0 0 0 0 0 0 0 0 0 0 0 0 0 
0 0 0 0 0 0 0 0 0 0 0 0 0 0 0 0 
0 0 0 0 0 0 0 0 0 0 0 0 0 0 0 0 
0 0 0 0 0 0 0 0 0 0 0 0 0 0 0 0 
0 0 0 0 0 0 0 0 0 0 0 0 0 0 0 0 
0 0 0 0 0 0 0 0 0 0 0 0 0 0 0 0 
0 0 0 0 0 0 0 0 0 0 0 0 0 0 0 0 0 0 0 0 0 0 0 0 0 0 0 0 0 0 0 
0 0 0 0 0 0 0 0 0 0 0 0 0 0 0 0 
0 0 0 0 0 0 0 0 0 0 0 0 0 0 0 0 
0 0 0 0 0 0 0 0 0 0 0 0 0 0 0 0 
0 0 0 0 0 0 0 0 0 0 0 0 0 0 0 0 
0 0 0 0 0 0 0 0 0 0 0 0 0 0 0 0 
0 0 0 0 0 0 0 0 0 0 0 0 0 0 0 0 
0 0 0 0 0 0 0 0 0 0 0 0 0 0 0 0 0 0 0 0 0 0 0 0 0 0 0 0 0 0 0 
0 0 0 0 0 0 0 0 0 0 0 0 0 0 0 0 
0 0 0 0 0 0 0 0 0 0 0 0 0 0 0 0 
0 0 0 0 0 0 0 0 0 0 0 0 0 0 0 0 
0 0 0 0 0 0 0 0 0 0 0 0 0 0 0 0 
0 0 0 0 0 0 0 0 0 0 0 0 0 0 0 0 
0 0 0 0 0 0 0 0 0 0 0 0 0 0 0 0 
0 0 0 0 0 0 0 0 0 0 0 0 0 0 0 0 0 0 0 0 0 0 0 0 0 0 0 0 0 0 0 
0 0 0 0 0 0 0 0 0 0 0 0 0 0 0 0 
0 0 0 0 0 0 0 0 0 0 0 0 0 0 0 0 
0 0 0 0 0 0 0 0 0 0 0 0 0 0 0 0 
0 0 0 0 0 0 0 0 0 0 0 0 0 0 0 0 
0 0 0 0 0 0 0 0 0 0 0 0 0 0 0 0 
0 0 0 0 0 0 0 0 0 0 0 0 0 0 0 0 
0 0 0 0 0 0 0 0 0 0 0 0 0 0 0 0 0 0 0 0 0 0 0 0 0 0 0 0 0 0 0 
0 0 0 0 0 0 0 0 0 0 0 0 0 0 0 0 
0 0 0 0 0 0 0 0 0 0 0 0 0 0 0 0 
0 0 0 0 0 0 0 0 0 0 0 0 0 0 0 0 
0 0 0 0 0 0 0 0 0 0 0 0 0 0 0 0 
0 0 0 0 0 0 0 0 0 0 0 0 0 0 0 0 
0 0 0 0 0 0 0 0 0 0 0 0 0 0 0 0 
0 0 0 0 0 0 0 0 0 0 0 0 0 0 0 0 0 0 0 0 0 0 0 0 0 0 0 0 0 0 0 
0 0 0 0 0 0 0 0 0 0 0 0 0 0 0 0 
0 0 0 0 0 0 0 0 0 0 0 0 0 0 0 0 
0 0 0 0 0 0 0 0 0 0 0 0 0 0 0 0 
0 0 0 0 0 0 0 0 0 0 0 0 0 0 0 0 
0 0 0 0 0 0 0 0 0 0 0 0 0 0 0 0 
0 0 0 0 0 0 0 0 0 0 0 0 0 0 0 0 
0 0 0 0 0 0 0 0 0 0 0 0 0 0 0 0 0 0 0 0 0 0 0 0 0 0 0 0 0 0 0 
0 0 0 0 0 0 0 0 0 0 0 0 0 0 0 0 
0 0 0 0 0 0 0 0 0 0 0 0 0 0 0 0 
0 0 0 0 0 0 0 0 0 0 0 0 0 0 0 0 
0 0 0 0 0 0 0 0 0 0 0 0 0 0 0 0 
0 0 0 0 0 0 0 0 0 0 0 0 0 0 0 0 
0 0 0 0 0 0 0 0 0 0 0 0 0 0 0 0 
0 0 0 0 0 0 0 0 0 0 0 0 0 0 0 0 0 0 0 0 0 0 0 0 0 0 0 0 0 0 0 
0 0 0 0 0 0 0 0 0 0 0 0 0 0 0 0 
0 0 0 0 0 0 0 0 0 0 0 0 0 0 0 0 
0 0 0 0 0 0 0 0 0 0 0 0 0 0 0 0 
0 0 0 0 0 0 0 0 0 0 0 0 0 0 0 0 
0 0 0 0 0 0 0 0 0 0 0 0 0 0 0 0 
0 0 0 0 0 0 0 0 0 0 0 0 0 0 0 0 
0 0 0 0 0 0 0 0 0 0 0 0 0 0 0 0 0 0 0 0 0 0 0 0 0 0 0 0 0 0 0 
0 0 0 0 0 0 0 0 0 0 0 0 0 0 0 0 
0 0 0 0 0 0 0 0 0 0 0 0 0 0 0 0 
0 0 0 0 0 0 0 0 0 0 0 0 0 0 0 0 
0 0 0 0 0 0 0 0 0 0 0 0 0 0 0 0 
0 0 0 0 0 0 0 0 0 0 0 0 0 0 0 0 
0 0 0 0 0 0 0 0 0 0 0 0 0 0 0 0 
0 0 0 0 0 0 0 0 0 0 0 0 0 0 0 0 0 0 0 0 0 0 0 0 0 0 0 0 0 0 0 
0 0 0 0 0 0 0 0 0 0 0 0 0 0 0 0 
0 0 0 0 0 0 0 0 0 0 0 0 0 0 0 0 
0 0 0 0 0 0 0 0 0 0 0 0 0 0 0 0 
0 0 0 0 0 0 0 0 0 0 0 0 0 0 0 0 
0 0 0 0 0 0 0 0 0 0 0 0 0 0 0 0 
0 0 0 0 0 0 0 0 0 0 0 0 0 0 0 0 
0 0 0 0 0 0 0 0 0 0 0 0 0 0 0 0 0 0 0 0 0 0 0 0 0 0 0 0 0 0 0 
0 0 0 0 0 0 0 0 0 0 0 0 0 0 0 0 
0 0 0 0 0 0 0 0 0 0 0 0 0 0 0 0 
0 0 0 0 0 0 0 0 0 0 0 0 0 0 0 0 
0 0 0 0 0 0 0 0 0 0 0 0 0 0 0 0 
0 0 0 0 0 0 0 0 0 0 0 0 0 0 0 0 
0 0 0 0 0 0 0 0 0 0 0 0 0 0 0 0 
0 0 0 0 0 0 0 0 0 0 0 0 0 0 0 0 0 0 0 0 0 0 0 0 0 0 0 0 0 0 0 
0 0 0 0 0 0 0 0 0 0 0 0 0 0 0 0 
0 0 0 0 0 0 0 0 0 0 0 0 0 0 0 0 
0 0 0 0 0 0 0 0 0 0 0 0 0 0 0 0 
0 0 0 0 0 0 0 0 0 0 0 0 0 0 0 0 
0 0 0 0 0 0 0 0 0 0 0 0 0 0 0 0 
0 0 0 0 0 0 0 0 0 0 0 0 0 0 0 0 
0 0 0 0 0 0 0 0 0 0 0 0 0 0 0 0 0 0 0 0 0 0 0 0 0 0 0 0 0 0 0 
0 0 0 0 0 0 0 0 0 0 0 0 0 0 0 0 
0 0 0 0 0 0 0 0 0 0 0 0 0 0 0 0 
0 0 0 0 0 0 0 0 0 0 0 0 0 0 0 0 
0 0 0 0 0 0 0 0 0 0 0 0 0 0 0 0 
0 0 0 0 0 0 0 0 0 0 0 0 0 0 0 0 
0 0 0 0 0 0 0 0 0 0 0 0 0 0 0 0 
0 0 0 0 0 0 0 0 0 0 0 0 0 0 